<?xml version="1.0" standalone="no"?>
<!DOCTYPE svg PUBLIC "-//W3C//DTD SVG 20010904//EN"
 "http://www.w3.org/TR/2001/REC-SVG-20010904/DTD/svg10.dtd">
<svg version="1.0" xmlns="http://www.w3.org/2000/svg"
 width="500.000000pt" height="500.000000pt" viewBox="0 0 500.000000 500.000000"
 preserveAspectRatio="xMidYMid meet">
<g transform="translate(0.000000,500.000000) scale(0.100000,-0.100000)"
fill="#000000" stroke="none">
<path d="M2330 3944 c-14 -3 -63 -12 -110 -21 -376 -71 -717 -298 -928 -617
-100 -151 -165 -326 -210 -562 -7 -33 -12 -139 -12 -235 0 -155 -2 -179 -20
-214 -15 -29 -19 -50 -14 -79 8 -56 40 -113 72 -130 20 -11 36 -35 61 -98 18
-45 51 -116 73 -156 l40 -73 -37 -52 c-20 -29 -59 -81 -86 -116 -36 -46 -49
-71 -47 -90 3 -29 -13 -25 255 -61 l172 -23 93 -70 c97 -72 286 -170 398 -208
163 -54 265 -69 460 -69 184 0 254 8 395 45 157 41 336 127 480 230 50 36 106
69 125 74 19 5 109 19 200 31 91 11 173 23 183 26 30 9 19 62 -23 107 -10 10
-43 54 -74 97 l-57 79 50 99 c114 226 161 423 161 670 0 177 -18 297 -69 453
-17 52 -31 101 -31 109 1 8 19 28 41 43 52 36 83 102 74 156 -13 77 -73 135
-138 133 -50 -1 -97 -23 -111 -50 -12 -24 -12 -30 4 -50 13 -16 18 -34 15 -57
-4 -27 0 -38 22 -54 24 -19 25 -25 20 -73 -4 -28 -12 -55 -18 -59 -7 -4 -9
-14 -6 -23 4 -9 4 -23 0 -32 -5 -13 -8 -13 -15 -2 -7 9 -8 8 -4 -6 8 -24 -32
-109 -46 -99 -7 3 -8 1 -4 -5 4 -6 2 -21 -5 -33 -9 -18 -13 -19 -21 -8 -7 10
-7 8 -3 -8 7 -24 -10 -33 -17 -11 -3 7 -5 -1 -5 -18 0 -35 -55 -115 -76 -111
-7 1 -11 -5 -10 -13 2 -8 -13 -25 -33 -38 -19 -12 -32 -27 -29 -32 3 -6 2 -10
-3 -10 -5 0 -25 -15 -44 -34 -20 -19 -39 -32 -44 -28 -4 4 -4 1 0 -5 4 -8 1
-13 -8 -13 -8 0 -19 -6 -23 -13 -14 -23 -103 -77 -103 -63 0 7 3 16 8 20 4 4
7 11 7 14 4 42 18 101 24 98 4 -3 8 1 8 9 0 8 -3 12 -7 10 -4 -2 -7 2 -7 10 0
18 2 18 28 4 17 -9 22 -5 35 26 8 20 34 55 57 78 24 23 57 59 75 80 17 20 35
36 39 35 20 -6 55 27 76 73 22 46 23 48 4 32 -19 -18 -19 -17 -12 6 5 18 4 22
-6 15 -7 -4 -2 9 10 30 13 20 21 40 17 43 -3 3 -1 12 4 18 15 18 14 153 0 170
-6 8 -9 19 -6 24 4 5 1 13 -5 16 -5 4 -8 13 -5 21 3 8 2 13 -2 12 -4 -1 -23
14 -44 33 -38 37 -39 69 -2 55 15 -6 17 -5 7 5 -22 22 -14 33 9 13 19 -16 20
-16 9 -1 -8 9 -11 21 -7 24 4 4 11 1 15 -6 5 -7 11 -9 13 -5 3 5 3 3 1 -5 -2
-8 4 -22 13 -32 12 -14 13 -22 4 -41 -10 -20 -9 -21 3 -6 12 15 17 15 40 3 15
-7 29 -10 31 -6 13 21 -200 238 -323 329 -95 70 -266 157 -385 197 -159 53
-240 66 -431 70 -99 2 -191 1 -205 -1z m140 -24 c-12 -7 -17 -87 -11 -181 3
-53 61 -61 61 -8 0 18 5 27 13 25 6 -1 9 -1 5 1 -15 9 -8 25 8 19 8 -3 13 -2
10 2 -3 5 4 16 14 25 18 15 20 15 30 -3 6 -11 10 -36 8 -56 -2 -25 2 -40 13
-47 27 -17 49 -1 49 35 0 39 26 81 43 72 7 -4 9 -4 5 1 -4 4 0 14 9 23 13 14
13 17 1 26 -8 6 -13 18 -10 26 3 8 1 12 -3 8 -9 -9 -35 9 -35 24 0 5 14 6 33
3 17 -4 39 -7 48 -8 11 -1 15 -7 11 -17 -5 -12 -3 -13 9 -4 15 12 67 8 85 -7
6 -5 14 -6 17 -2 4 3 7 1 7 -5 0 -7 -6 -12 -14 -12 -7 0 -19 -7 -26 -15 -7 -9
-15 -13 -17 -11 -3 3 -17 -6 -31 -19 -14 -13 -29 -22 -32 -20 -4 3 -5 -7 -2
-20 2 -14 8 -25 13 -25 8 0 25 -67 21 -83 -1 -5 3 -5 9 -1 8 5 10 2 6 -8 -6
-18 7 -18 39 0 12 6 25 8 29 4 5 -4 5 -2 2 4 -6 11 15 22 36 20 5 -1 15 11 23
26 11 20 11 33 3 55 -6 15 -10 29 -9 31 0 1 -6 10 -15 18 -8 9 -13 19 -10 24
3 5 -1 10 -7 13 -7 2 -11 7 -8 10 3 3 20 -1 39 -9 27 -11 31 -17 22 -28 -9
-11 -9 -16 0 -22 8 -4 9 -3 5 5 -4 6 0 14 8 17 9 3 14 10 11 14 -3 5 4 6 16 3
16 -5 18 -8 7 -15 -9 -7 -7 -8 10 -5 12 3 22 1 22 -5 0 -6 9 -8 20 -5 11 3 20
1 20 -3 0 -9 39 -25 52 -22 4 1 5 -5 2 -12 -3 -8 -11 -13 -18 -10 -6 2 -37
-20 -69 -51 -31 -30 -61 -55 -67 -55 -13 0 -13 -33 1 -47 12 -12 49 -6 49 9 0
5 5 6 12 2 6 -4 8 -3 5 3 -4 6 -1 13 7 16 16 6 26 -12 22 -39 -3 -20 -41 -26
-63 -10 -8 5 -13 4 -13 -3 0 -7 -6 -11 -12 -10 -7 2 -69 -1 -137 -5 -97 -6
-125 -5 -132 5 -4 7 -20 14 -36 15 -51 3 -54 4 -47 16 5 7 3 8 -6 3 -7 -4 -15
-4 -19 1 -3 5 -30 17 -60 26 -48 15 -57 16 -83 2 -16 -8 -34 -12 -40 -8 -7 5
-8 3 -3 -6 6 -10 4 -12 -8 -7 -9 3 -17 3 -19 -1 -6 -14 -73 -41 -76 -32 -2 5
-13 1 -25 -10 -11 -11 -29 -21 -39 -21 -26 -2 -31 -3 -56 -18 -13 -7 -30 -10
-38 -7 -10 4 -12 2 -8 -6 5 -8 2 -9 -9 -5 -10 4 -17 2 -17 -4 0 -7 -11 -9 -27
-5 -19 5 -23 4 -14 -3 10 -6 -3 -13 -45 -22 -32 -7 -64 -16 -70 -21 -6 -5 -20
-5 -29 -1 -13 4 -16 3 -11 -5 5 -8 -2 -10 -24 -6 -20 5 -30 3 -30 -6 0 -7 -7
-10 -16 -6 -9 4 -22 2 -28 -3 -10 -8 -70 -23 -108 -26 -10 -1 -24 -7 -31 -14
-8 -6 -17 -8 -20 -5 -4 4 -2 -7 2 -24 5 -17 7 -33 4 -36 -9 -9 -8 -114 0 -109
5 3 4 -3 -1 -13 -10 -19 -72 -61 -72 -49 0 4 -7 -1 -16 -9 -8 -9 -19 -14 -24
-11 -4 3 -10 -5 -13 -16 -3 -12 -10 -18 -16 -14 -6 3 -8 11 -5 17 4 7 2 8 -5
4 -6 -4 -9 -11 -6 -16 7 -12 -52 -53 -65 -45 -5 3 -10 1 -10 -4 0 -6 5 -11 11
-11 5 0 7 -4 4 -10 -10 -15 -23 -12 -28 8 -4 13 -5 12 -6 -5 -1 -13 -13 -29
-30 -39 -17 -10 -28 -21 -25 -25 2 -4 0 -10 -5 -14 -6 -3 -8 6 -5 21 3 16 1
23 -6 19 -5 -3 -10 -2 -10 4 0 5 -16 15 -36 21 -19 7 -38 18 -41 26 -3 8 -9
11 -14 8 -16 -9 -33 7 -18 18 10 6 7 7 -8 3 -26 -7 -28 -1 -12 43 6 18 15 29
20 26 5 -3 9 1 9 8 0 8 5 6 11 -5 6 -10 8 -25 5 -32 -3 -8 -1 -28 5 -44 9 -24
15 -28 42 -26 18 2 32 4 32 5 0 1 10 3 22 6 12 2 28 5 35 6 27 6 34 22 28 65
-5 28 -3 43 4 44 6 0 6 3 -1 6 -7 2 -13 14 -13 25 0 30 -27 53 -45 38 -8 -6
-19 -9 -24 -6 -5 4 -12 2 -16 -4 -3 -5 -11 -10 -16 -10 -6 0 -7 5 -4 10 9 15
-2 12 -19 -6 -9 -8 -16 -11 -16 -5 0 5 5 13 10 16 6 4 8 10 5 15 -3 5 0 12 6
16 8 5 9 3 4 -6 -6 -9 -4 -11 4 -6 7 5 10 13 8 20 -3 6 4 23 15 36 l21 25 -7
-25 c-6 -21 -5 -22 4 -7 7 10 9 25 6 33 -3 9 -1 12 4 9 6 -3 10 2 10 11 0 12
18 1 59 -37 53 -49 78 -81 49 -63 -7 4 -8 3 -4 -4 4 -6 14 -8 23 -5 12 5 15 2
11 -8 -5 -14 14 -17 55 -10 13 2 7 34 -10 53 -15 17 -15 19 3 33 24 18 35 19
31 3 -1 -9 7 -12 23 -9 29 4 42 20 35 40 -3 8 0 18 7 23 9 6 6 7 -8 4 -14 -4
-27 2 -42 19 -24 27 -29 40 -10 29 7 -4 8 -3 4 5 -4 6 -11 9 -16 6 -13 -8 -71
36 -63 48 4 6 1 7 -8 1 -8 -5 -18 -9 -24 -9 -5 0 -11 -10 -13 -22 -2 -13 -8
-23 -13 -23 -5 0 -9 -5 -9 -11 0 -5 5 -7 10 -4 6 3 10 2 10 -3 0 -18 -39 -21
-42 -4 -4 19 88 122 109 122 8 0 12 4 9 9 -6 9 43 50 84 70 26 13 19 5 -27
-27 -15 -11 -15 -12 -1 -8 11 3 19 -2 24 -17 3 -12 16 -35 28 -52 13 -16 25
-38 29 -47 3 -9 18 -25 33 -34 25 -17 27 -17 39 -1 7 9 19 17 28 17 19 0 33
45 20 63 -13 17 -17 77 -5 77 5 0 12 9 15 20 3 12 0 20 -8 20 -7 0 -15 6 -18
14 -6 15 -92 11 -114 -6 -7 -6 -14 -4 -19 4 -4 7 -4 10 1 6 5 -5 14 1 22 12 8
11 20 20 26 20 8 0 8 -3 -2 -9 -9 -6 -5 -8 13 -8 15 0 29 3 32 8 3 5 -2 6 -10
3 -30 -12 -16 13 18 31 19 11 33 23 30 27 -3 4 -1 8 5 8 5 0 13 -5 16 -11 5
-7 18 1 36 19 16 16 39 32 52 35 21 6 21 5 3 -8 -10 -7 -15 -18 -12 -24 4 -5
2 -12 -4 -16 -5 -3 -10 -15 -10 -26 0 -10 -5 -19 -11 -19 -5 0 -7 -4 -4 -10 3
-5 1 -10 -5 -10 -7 0 -10 -6 -7 -12 2 -7 0 -21 -5 -32 -7 -13 -7 -16 1 -12 6
4 11 3 11 -3 0 -5 18 -12 40 -16 22 -4 37 -11 34 -16 -3 -6 5 -7 22 -3 17 4
25 3 21 -3 -3 -5 0 -10 8 -10 7 0 19 11 26 24 10 19 11 28 1 44 -7 11 -10 25
-6 31 4 6 3 9 -2 5 -5 -3 -14 6 -21 19 -8 18 -8 24 0 24 7 0 5 6 -4 13 -8 7
-23 24 -33 39 l-18 27 40 20 c23 12 48 17 61 14 17 -4 19 -8 9 -14 -8 -5 -9
-9 -2 -9 7 0 15 -17 19 -37 4 -21 9 -49 12 -62 6 -35 35 -81 50 -81 20 0 33
44 23 79 -8 29 -2 40 14 24 10 -10 67 -12 61 -2 -3 4 0 9 6 11 12 4 -49 68
-64 68 -5 0 -3 7 4 17 13 15 12 15 -8 3 -18 -12 -25 -11 -47 4 -29 18 -25 41
5 33 11 -3 17 -1 13 4 -3 5 3 10 13 11 58 5 71 6 98 13 23 5 26 4 15 -4 -8 -6
-10 -11 -5 -11 6 0 11 -30 13 -68 2 -60 30 -182 31 -139 1 10 5 15 11 12 5 -3
15 4 21 17 6 13 22 32 36 42 24 17 26 18 20 2 -9 -22 13 -56 35 -56 23 0 41
35 32 63 -7 21 -15 95 -15 130 0 9 -4 17 -10 17 -5 0 -9 6 -9 14 0 9 13 14 42
14 28 1 37 -2 28 -8z m80 0 c0 -14 -28 -19 -33 -6 -3 6 4 13 14 13 10 1 19 -2
19 -7z m70 1 c17 -5 21 -9 12 -15 -6 -4 -12 -16 -12 -27 0 -23 -37 -21 -55 4
-7 9 -15 13 -20 9 -4 -4 -1 3 6 16 14 23 26 25 69 13z m-269 -24 c-18 -18 -23
-19 -45 -7 -33 17 -27 25 24 26 l42 2 -21 -21z m44 -15 c1 -9 5 -52 10 -94 5
-53 4 -78 -3 -78 -6 0 -14 32 -18 70 -7 72 -12 81 -34 55 -10 -12 -15 -12 -37
2 l-26 17 8 -78 c6 -64 4 -77 -7 -74 -13 5 -36 174 -24 185 2 3 19 -5 37 -18
l33 -23 25 32 c26 32 34 33 36 4z m142 -7 c23 -16 42 -33 43 -37 0 -4 -18 -19
-40 -35 -30 -21 -40 -35 -40 -55 0 -16 -4 -28 -10 -28 -6 0 -10 39 -10 96 0
53 3 94 8 92 4 -1 26 -16 49 -33z m152 -4 l32 -30 -30 -17 c-29 -17 -41 -47
-41 -101 0 -15 -5 -23 -12 -20 -15 4 -15 5 -4 115 5 45 12 82 16 82 4 0 22
-13 39 -29z m-631 -22 c-2 -7 26 -29 62 -49 36 -21 66 -45 68 -54 3 -13 -7
-10 -47 14 -56 32 -58 30 -36 -44 18 -60 18 -66 2 -66 -9 0 -19 22 -26 58 -23
103 -33 132 -50 132 -14 0 -14 2 -1 10 20 13 31 12 28 -1z m559 -20 c-2 -25
-20 -19 -22 8 -1 13 3 19 11 16 7 -2 12 -13 11 -24z m302 -45 c13 -30 22 -56
20 -58 -32 -24 -103 -56 -108 -50 -11 12 -44 104 -40 109 7 7 94 55 100 55 3
0 16 -25 28 -56z m-549 17 c0 -3 -7 -15 -15 -25 -12 -16 -17 -17 -30 -6 -24
20 -18 37 15 37 17 0 30 -3 30 -6z m800 -36 c11 -13 10 -15 -6 -9 -18 5 -18 5
-1 -6 9 -6 21 -9 26 -5 5 3 13 0 17 -6 5 -8 3 -9 -6 -4 -8 5 -11 4 -6 -3 3 -6
15 -9 26 -7 10 2 30 -5 43 -15 13 -11 27 -16 31 -12 4 3 4 -1 0 -11 -5 -13 -2
-16 12 -10 13 5 15 3 9 -7 -6 -10 -4 -12 8 -7 12 4 14 2 10 -10 -4 -10 -2 -14
4 -10 6 4 22 -2 34 -14 16 -13 18 -19 7 -16 -19 7 -18 -17 2 -36 12 -10 12 -9
1 6 -7 9 -11 17 -8 17 3 0 13 3 23 7 13 5 16 3 11 -10 -4 -10 -2 -16 6 -14 7
1 11 -4 9 -12 -3 -12 0 -12 13 -1 13 11 15 10 11 -11 -4 -25 19 -59 38 -59 6
0 0 9 -14 20 -14 11 -19 20 -12 20 7 0 10 5 6 13 -3 6 5 0 18 -15 14 -15 29
-24 33 -20 4 4 3 -2 -3 -14 -14 -27 -45 -54 -37 -32 4 9 -1 18 -11 22 -13 5
-14 4 -6 -7 6 -7 7 -18 2 -26 -4 -8 -6 -20 -3 -28 3 -9 0 -11 -10 -7 -10 4
-14 15 -11 32 4 26 3 26 -9 6 -9 -16 -17 -19 -32 -13 -14 5 -15 8 -5 9 8 1 -3
8 -25 16 -25 9 -41 11 -43 4 -3 -7 -10 -7 -23 0 -10 6 -19 9 -19 7 0 -3 -27 1
-61 8 -33 7 -70 10 -81 7 -13 -3 -19 -1 -15 5 4 7 -9 7 -41 1 -43 -8 -199 -4
-209 5 -14 15 269 17 332 2 17 -3 41 -6 55 -7 14 0 31 -5 38 -10 12 -10 31 -4
21 7 -3 2 -39 12 -80 21 -81 18 -326 24 -414 9 l-50 -8 69 -23 c59 -20 89 -24
200 -24 153 0 289 -24 374 -66 70 -34 135 -100 158 -159 23 -61 15 -165 -16
-229 -18 -36 -21 -49 -12 -58 29 -29 -3 -88 -49 -88 -8 0 -29 -19 -46 -42 -17
-24 -51 -63 -76 -88 -25 -24 -43 -48 -41 -52 3 -4 -2 -5 -10 -2 -11 4 -13 0
-9 -15 4 -14 1 -21 -10 -21 -35 0 -22 30 40 91 36 35 78 83 94 106 25 36 28
45 17 62 -9 15 -8 24 5 45 10 14 26 26 36 26 25 0 52 67 59 147 6 82 -15 138
-73 192 -77 71 -168 103 -325 116 -41 3 -95 8 -119 11 -26 3 -41 2 -37 -4 3
-5 27 -12 53 -16 27 -3 92 -16 146 -28 l97 -21 0 -151 c0 -83 -5 -207 -10
-276 -6 -94 -6 -127 3 -132 9 -6 7 -11 -5 -19 -10 -5 -18 -20 -18 -33 0 -23
-38 -63 -103 -111 -18 -13 -25 -25 -21 -38 4 -12 -3 -25 -20 -38 -28 -22 -56
-77 -77 -149 -17 -62 -19 -67 -20 -77 0 -5 -7 -15 -15 -24 -8 -9 -11 -19 -7
-22 5 -6 -2 -8 -22 -7 -3 1 -17 -8 -32 -20 -14 -11 -34 -20 -44 -20 -11 0 -19
-5 -19 -11 0 -6 -8 -8 -17 -5 -10 3 -25 1 -33 -4 -8 -5 -11 -10 -5 -10 21 0
-69 -41 -95 -43 -16 -1 -26 -4 -24 -6 5 -5 -66 -40 -82 -41 -6 0 -29 -8 -50
-17 -22 -9 -43 -18 -49 -19 -5 -1 -16 -3 -24 -5 -10 -3 -13 22 -14 129 0 90
-4 131 -11 129 -6 -3 -10 -10 -8 -17 2 -7 -3 -17 -10 -21 -9 -6 -9 -9 -1 -9 8
0 11 -33 11 -110 l0 -110 -35 -9 c-20 -6 -41 -7 -46 -4 -6 3 -7 1 -4 -4 4 -7
-19 -17 -61 -28 -125 -31 -120 -31 -158 6 -54 52 -124 146 -116 154 4 5 1 5
-5 1 -8 -4 -13 -1 -13 9 0 9 -4 13 -10 10 -5 -3 -10 0 -10 7 0 8 -9 31 -20 53
-11 22 -20 45 -20 52 0 7 -5 13 -10 13 -6 0 -9 3 -8 8 3 6 -26 115 -40 152 -3
8 -7 26 -8 40 -2 14 -6 36 -9 50 -4 14 -8 41 -10 60 -13 116 -17 158 -16 183
1 15 -4 27 -11 28 -7 0 -23 2 -35 5 -13 2 -22 0 -20 -5 1 -6 -20 -32 -46 -60
-44 -45 -48 -54 -49 -100 -1 -30 -5 -48 -11 -44 -6 3 -7 1 -3 -5 4 -7 3 -12
-2 -12 -5 0 -20 -10 -33 -21 -13 -12 -34 -28 -46 -36 -13 -8 -21 -19 -18 -23
3 -4 -11 -22 -30 -39 -20 -17 -33 -31 -30 -31 3 0 -2 -13 -12 -30 -17 -30 -33
-39 -33 -20 0 16 -26 12 -41 -6 -16 -19 -21 -44 -8 -44 4 0 13 -10 20 -21 6
-13 7 -19 1 -15 -6 3 -13 -11 -17 -34 -4 -22 -11 -38 -15 -35 -5 3 -9 -3 -10
-12 0 -10 -3 -54 -6 -99 -5 -70 -3 -87 16 -130 13 -27 27 -52 33 -55 5 -4 -9
-26 -34 -50 -41 -42 -38 -30 5 18 29 34 10 41 -21 7 -15 -16 -31 -28 -36 -26
-5 1 -6 -1 -4 -5 8 -12 -38 -84 -47 -75 -4 4 -7 3 -6 -3 4 -19 0 -38 -6 -32
-4 4 -15 -3 -25 -14 l-17 -20 -16 22 c-14 21 -14 25 2 43 15 18 15 19 0 8 -14
-11 -18 -10 -27 7 -8 15 -7 23 4 35 9 9 11 17 5 21 -5 3 -10 1 -10 -4 0 -27
-18 -6 -40 45 -20 48 -21 60 -10 78 10 17 10 19 -1 9 -17 -17 -26 -16 -26 2 0
14 10 19 30 16 5 -1 6 3 2 9 -4 7 -12 7 -25 0 -26 -14 -47 -3 -55 27 -6 27 2
44 13 27 4 -6 21 -16 39 -23 29 -12 35 -11 59 8 15 12 32 21 38 21 6 0 4 -5
-4 -11 -12 -9 -12 -10 -1 -7 16 5 22 60 9 96 -5 15 -4 22 5 23 9 0 9 2 -1 6
-10 4 -10 8 0 21 12 15 11 16 -5 3 -15 -12 -20 -11 -36 3 -13 11 -18 26 -14
39 3 12 5 31 4 42 -1 47 68 215 101 246 10 9 15 19 11 22 -3 4 2 9 11 13 9 3
13 10 10 15 -3 5 0 9 5 9 6 0 11 5 11 11 0 13 62 89 73 89 5 0 6 -4 3 -9 -4
-5 4 -6 16 -3 19 5 20 7 6 10 -10 2 -18 7 -18 12 0 13 29 32 39 25 6 -3 8 0 5
8 -3 10 2 14 17 13 14 -1 23 5 25 18 4 27 39 57 52 44 8 -8 10 -5 6 8 -3 13 8
28 38 51 23 17 46 29 51 26 5 -3 7 -21 6 -42 -2 -20 2 -45 9 -56 9 -16 11 -6
12 57 0 63 3 76 14 72 8 -3 23 4 33 15 9 12 22 21 29 21 14 0 14 -33 0 -42 -7
-5 -7 -8 2 -8 7 0 10 -5 6 -12 -4 -7 -3 -8 4 -4 12 7 17 106 6 106 -3 0 -26
-13 -51 -30 -24 -16 -47 -30 -51 -30 -14 -1 -121 -87 -211 -170 -168 -154
-301 -390 -301 -531 0 -29 5 -39 20 -44 19 -6 50 -52 50 -73 0 -5 -11 -21 -25
-36 -30 -32 -71 -34 -105 -3 -30 27 -29 61 5 97 16 18 24 42 28 82 9 89 57
214 122 313 85 131 259 300 405 395 l115 74 0 43 c0 24 -1 43 -1 43 -8 0 -181
-101 -222 -129 -28 -20 -73 -51 -99 -68 -55 -38 -124 -103 -201 -191 -51 -58
-54 -64 -43 -88 6 -15 9 -35 6 -45 -8 -23 -38 -41 -58 -33 -16 6 -58 -82 -62
-129 -1 -15 -5 -30 -9 -34 -10 -10 -7 -43 4 -43 6 0 10 10 10 23 0 12 7 33 16
45 8 12 10 22 5 22 -6 0 -11 5 -11 11 0 6 7 8 16 5 12 -4 14 -1 9 14 -9 27 5
47 48 69 20 10 37 17 37 15 0 -2 -12 -28 -27 -59 -19 -38 -30 -51 -36 -42 -5
7 -6 4 -2 -10 6 -23 -18 -93 -38 -105 -8 -5 -8 -8 -1 -8 11 0 -3 -72 -19 -97
-5 -8 -4 -13 2 -13 16 0 13 -30 -4 -36 -8 -3 -17 -14 -20 -25 -4 -10 -11 -19
-16 -19 -13 0 -11 67 3 76 6 4 8 3 4 -4 -3 -6 -2 -13 3 -16 10 -7 9 20 -2 30
-4 4 -2 13 3 19 7 8 6 23 -1 44 -16 44 -5 123 27 201 15 36 27 85 28 110 1 42
3 46 33 55 18 5 33 13 33 17 0 4 39 51 86 103 110 122 341 291 471 344 25 10
31 18 29 38 -3 25 -84 109 -95 97 -3 -3 5 -15 19 -26 14 -11 24 -25 22 -30 -1
-5 1 -7 5 -5 9 6 27 -13 31 -31 1 -7 -10 -18 -25 -25 -16 -6 -35 -18 -43 -26
-13 -13 -15 -5 -18 73 -2 49 -1 90 0 92 2 2 60 15 128 29 190 40 431 118 612
198 l56 25 122 -49 c73 -30 129 -48 140 -44 11 3 77 10 147 15 147 9 284 -2
376 -30 42 -13 65 -16 72 -9 7 7 4 8 -9 3 -13 -5 -17 -4 -12 4 5 8 2 10 -8 6
-9 -3 -16 -1 -16 6 0 6 -4 8 -10 5 -5 -3 -31 2 -57 11 -27 9 -57 17 -68 18
-17 1 -20 9 -22 46 -1 25 -4 68 -6 97 -4 44 -2 63 8 63 2 0 8 -7 15 -15z
m-1209 -80 c24 -54 32 -85 25 -85 -7 0 -35 7 -62 16 -27 9 -54 17 -61 19 -8 3
-6 15 7 43 10 21 22 50 25 65 12 45 28 30 66 -58z m1169 -25 c0 -72 -3 -90
-15 -90 -11 0 -15 16 -17 68 l-3 67 -46 -42 c-50 -47 -59 -51 -59 -28 0 8 3
15 8 15 4 0 30 22 57 50 28 27 56 49 63 50 9 0 12 -24 12 -90z m-1342 -25 c2
-1 -2 -23 -9 -49 -10 -39 -9 -50 5 -71 18 -28 20 -35 7 -35 -9 0 -96 127 -108
156 -5 13 3 14 48 8 30 -4 55 -8 57 -9z m-124 -28 c-3 -8 16 -43 41 -80 49
-72 51 -77 33 -77 -12 0 -108 137 -108 152 0 4 8 9 18 11 9 3 18 5 19 6 1 0 0
-5 -3 -12z m1041 -27 c3 -6 -1 -7 -9 -4 -18 7 -21 14 -7 14 6 0 13 -4 16 -10z
m849 -123 c-11 -6 -19 -5 -25 4 -5 8 -9 10 -9 6 0 -5 -5 -5 -12 -1 -8 5 -5 11
7 20 16 12 21 11 37 -3 17 -15 17 -18 2 -26z m-1985 -36 c54 -47 76 -81 53
-81 -4 0 -30 23 -57 50 l-50 51 -5 -33 c-4 -27 -9 -33 -28 -31 -32 4 -27 -9
23 -56 25 -23 45 -49 45 -57 0 -7 -2 -14 -4 -14 -10 0 -144 139 -139 144 4 3
24 6 46 6 l39 0 -4 40 c-5 51 3 50 81 -19z m1794 42 c-7 -2 -19 -2 -25 0 -7 3
-2 5 12 5 14 0 19 -2 13 -5z m148 -28 c0 -5 -9 -11 -21 -13 -20 -3 -27 8 -13
22 10 9 34 3 34 -9z m117 -45 c17 -29 0 -24 -21 5 -11 16 -13 23 -5 20 8 -3
19 -14 26 -25z m-265 -10 c29 -23 41 -26 32 -7 -4 6 -1 5 7 -4 7 -8 21 -18 32
-22 11 -5 16 -13 12 -23 -3 -9 -2 -12 5 -8 14 8 71 -47 65 -63 -3 -7 -1 -13 4
-13 6 0 10 -5 10 -12 0 -6 -3 -8 -6 -5 -10 9 -44 -12 -44 -27 0 -24 29 -41 49
-29 17 10 17 8 9 -30 -4 -23 -10 -51 -12 -62 -6 -35 -16 -50 -49 -70 -36 -23
-63 -85 -43 -97 8 -6 8 -12 -2 -25 -6 -10 -16 -28 -22 -40 -5 -13 -12 -23 -15
-23 -4 0 -3 5 0 10 3 6 4 10 0 10 -3 0 -10 -12 -15 -26 -6 -14 -14 -22 -20
-19 -6 3 -7 -1 -4 -10 5 -11 2 -14 -12 -8 -11 4 -15 3 -10 -5 3 -6 -3 -14 -15
-17 -14 -5 -18 -10 -10 -14 8 -5 3 -12 -13 -19 -14 -6 -28 -7 -31 -3 -3 5 2
11 10 15 8 3 15 14 15 24 0 10 4 22 10 28 6 6 12 130 16 299 3 159 8 293 10
296 2 4 -2 10 -8 12 -9 4 -7 6 3 6 9 1 28 -8 42 -19z m505 -1 c32 -20 59 -109
46 -152 -3 -9 -9 -15 -14 -12 -11 7 -22 -24 -13 -38 3 -7 3 -9 -2 -5 -4 4 -14
0 -22 -10 -8 -9 -12 -11 -8 -4 3 6 -1 15 -9 18 -9 3 -13 10 -10 15 3 5 10 6
16 3 7 -4 8 -2 4 4 -4 7 -1 12 6 12 7 0 19 18 26 40 11 37 10 43 -8 62 -11 12
-20 25 -20 30 0 13 18 9 23 -4 4 -8 6 -9 6 -2 1 7 -11 20 -26 30 -18 11 -24
12 -16 3 10 -12 4 -14 -39 -13 -37 2 -56 -3 -67 -15 -9 -9 -15 -15 -14 -12 2
2 -3 11 -10 19 -10 13 -9 15 7 9 16 -6 17 -5 6 8 -11 13 -9 15 14 15 14 0 26
4 26 9 0 13 72 6 98 -10z m-2318 2 c0 -5 3 -16 6 -25 5 -12 0 -16 -19 -16 -14
0 -29 5 -32 10 -3 6 1 10 9 10 9 0 16 7 16 15 0 8 5 15 10 15 6 0 10 -4 10 -9z
m2295 -61 c25 -28 24 -79 -2 -100 -15 -12 -24 -37 -32 -86 -12 -78 -37 -158
-71 -224 -87 -172 -266 -360 -470 -498 -68 -45 -77 -55 -94 -103 -10 -29 -25
-64 -33 -76 -16 -24 -43 -31 -43 -12 0 5 -5 7 -10 4 -6 -4 -8 -10 -5 -15 7
-11 -22 -21 -42 -13 -12 5 -14 3 -8 -7 6 -9 4 -11 -5 -5 -10 6 -10 11 3 20 9
7 14 15 10 18 -3 4 -1 7 6 7 7 0 9 5 6 11 -9 14 25 38 44 31 9 -3 12 -1 7 6
-4 7 -5 12 -2 12 2 0 12 3 22 7 13 5 15 3 9 -7 -5 -9 -4 -11 4 -6 6 4 9 12 6
17 -4 5 0 12 9 15 8 3 17 12 20 21 5 11 -1 10 -27 -5 -17 -10 -51 -30 -74 -42
-29 -16 -44 -32 -48 -51 -4 -15 -24 -48 -46 -73 -23 -25 -38 -46 -35 -46 4 0
25 9 49 19 23 11 77 35 120 55 102 46 283 155 379 227 42 33 107 93 145 134
57 63 67 80 65 106 -4 36 12 59 43 59 18 0 28 12 49 61 25 58 38 135 16 98 -5
-9 -12 -25 -14 -35 -10 -45 -19 -63 -29 -57 -5 3 -7 1 -4 -5 10 -15 -3 -42
-19 -42 -12 0 -12 5 -4 23 11 21 11 22 -5 2 -9 -11 -23 -29 -33 -41 -18 -22
-24 -37 -26 -69 -2 -31 -32 -69 -48 -59 -9 5 -8 2 2 -11 14 -17 13 -18 -3 -12
-12 5 -17 3 -15 -4 4 -12 -35 -54 -93 -99 -17 -14 -39 -33 -49 -43 -18 -18
-19 -18 -35 7 -10 14 -22 26 -29 26 -6 0 -4 -5 4 -10 13 -8 12 -11 -5 -24 -11
-8 -20 -25 -20 -37 0 -14 -9 -28 -21 -34 -12 -6 -30 -17 -40 -25 -16 -13 -17
-13 -10 0 7 13 6 13 -6 0 -7 -8 -20 -16 -28 -18 -8 -2 -24 -12 -35 -21 -27
-25 -65 -44 -73 -37 -3 3 0 6 6 6 6 0 9 7 5 17 -4 9 -2 14 3 10 6 -3 11 4 11
15 2 26 43 70 60 64 7 -3 12 0 10 7 -1 7 4 11 11 9 8 -1 11 2 7 7 -3 6 5 15
17 22 22 12 22 11 9 -7 -7 -10 0 -4 18 14 17 17 33 32 36 32 3 0 16 9 28 20
12 11 28 18 36 15 12 -5 12 -3 0 12 -8 9 -9 14 -2 10 7 -4 23 6 38 25 15 18
24 28 21 22 -3 -7 2 -18 12 -25 14 -11 15 -11 5 0 -8 10 -9 20 -1 37 6 13 14
24 17 24 13 0 81 67 74 73 -3 4 -2 7 3 7 5 0 18 14 27 30 10 17 25 30 33 30 9
0 12 -5 8 -12 -4 -7 -3 -8 4 -4 9 5 9 13 1 28 -9 16 -8 19 2 13 9 -6 11 -4 6
7 -3 10 3 24 14 34 16 15 19 15 14 2 -10 -25 10 -30 30 -8 10 11 15 20 10 20
-4 0 -13 -8 -20 -17 -11 -15 -12 -14 -12 10 0 15 3 24 8 21 5 -3 6 3 2 12 -5
13 -3 15 7 9 9 -5 11 -4 6 3 -4 7 -3 12 1 12 7 0 29 43 38 75 11 37 37 85 47
85 6 0 8 -3 5 -6 -3 -4 0 -16 8 -28 17 -24 20 -40 5 -31 -6 3 -7 -1 -4 -9 3
-9 9 -14 13 -12 6 4 9 -5 14 -59 1 -14 5 -25 8 -25 4 0 9 -10 12 -22 6 -22 6
-22 -8 -4 -10 13 -15 15 -15 6 0 -7 6 -21 14 -29 19 -23 29 -81 13 -81 -9 0
-9 -2 1 -9 8 -5 13 -26 12 -57 -1 -27 1 -66 3 -86 4 -27 2 -36 -6 -31 -8 4 -7
1 0 -9 16 -19 8 -156 -13 -211 -9 -25 -10 -36 -3 -31 14 8 2 -76 -13 -91 -8
-7 -8 -5 -3 5 5 8 5 12 0 8 -4 -4 -9 -22 -10 -40 -4 -53 -11 -80 -33 -133 -11
-27 -23 -59 -27 -70 -4 -15 -8 -16 -14 -6 -6 10 -10 9 -14 -4 -4 -9 -3 -13 3
-10 14 9 12 -8 -2 -24 -10 -10 -10 -12 -1 -7 16 9 -11 -44 -27 -54 -6 -4 -12
-13 -14 -21 -1 -8 -7 -23 -14 -34 -11 -19 -11 -18 -12 8 0 16 -4 26 -8 23 -5
-3 -23 20 -41 50 -19 29 -36 54 -40 54 -3 0 -14 12 -24 25 -16 22 -16 27 -2
48 12 19 13 24 1 24 -7 0 -13 -7 -12 -15 0 -8 -5 -17 -12 -19 -8 -3 -10 1 -5
13 4 11 2 15 -4 11 -13 -8 -51 24 -46 40 2 6 -1 14 -6 18 -7 4 -9 -1 -5 -12 3
-10 -16 6 -43 35 -26 29 -53 52 -60 52 -6 0 -15 5 -19 12 -4 6 -3 8 3 5 6 -4
17 1 24 10 12 15 12 16 -1 8 -18 -11 -32 -14 -82 -17 -21 -2 -38 -6 -38 -9 0
-4 -17 -9 -37 -12 -21 -3 -59 -13 -85 -21 -34 -11 -46 -11 -42 -3 6 16 44 40
51 33 4 -3 12 2 19 12 8 10 13 12 14 5 0 -7 5 -13 11 -13 5 0 8 4 4 9 -3 5 5
17 17 25 16 12 25 13 35 4 11 -9 12 -7 7 7 -5 13 -4 16 4 11 7 -4 12 -2 12 5
0 7 3 10 6 6 3 -3 18 5 33 19 24 23 27 23 39 7 13 -19 56 -28 45 -10 -4 6 0 8
9 4 12 -4 15 0 13 16 -1 12 -5 29 -8 37 -7 17 81 85 110 85 11 0 17 7 17 17
-1 9 10 21 26 28 15 6 33 23 39 37 7 16 17 23 26 19 10 -3 15 1 15 12 1 26 55
81 86 86 33 6 75 45 72 66 -1 8 1 21 6 29 6 10 5 12 -2 7 -13 -8 -12 3 3 59 4
17 12 36 18 43 5 7 7 15 4 18 -3 3 -1 19 4 36 5 19 5 37 -2 47 -8 13 -9 13 -6
1 5 -19 -19 -104 -44 -152 -16 -31 -17 -41 -7 -57 18 -29 -13 -71 -52 -71 -17
0 -30 -4 -30 -8 0 -24 -178 -187 -280 -257 -63 -43 -117 -82 -120 -85 -3 -3
-53 -30 -112 -59 -60 -30 -108 -59 -108 -64 0 -6 -10 -21 -22 -34 -12 -13 -19
-25 -17 -28 3 -2 38 6 79 19 41 13 111 31 154 40 71 16 80 17 88 2 5 -8 15
-13 23 -10 8 4 15 2 15 -4 0 -13 101 -117 120 -124 8 -3 12 -9 7 -13 -4 -5
-13 -3 -19 3 -15 15 -28 16 -28 2 0 -5 4 -9 8 -7 10 2 161 -160 195 -208 l20
-30 -31 29 c-46 42 -39 19 8 -29 43 -44 48 -55 24 -55 -13 0 7 -32 65 -100 2
-3 6 1 8 7 5 15 25 -1 36 -29 3 -10 11 -18 18 -18 6 0 9 -7 5 -15 -3 -8 -2
-14 2 -14 21 4 35 -2 27 -10 -6 -5 -80 -19 -165 -31 -85 -11 -166 -23 -180
-25 -14 -3 -88 -14 -165 -25 -77 -12 -196 -30 -265 -40 -69 -11 -194 -28 -279
-39 -148 -19 -187 -30 -160 -46 7 -5 10 -4 5 3 -4 6 1 11 11 11 10 0 29 2 43
4 14 3 68 10 120 16 52 6 182 25 288 41 106 16 223 32 260 35 l67 5 -48 -16
c-26 -8 -45 -19 -43 -23 3 -4 -8 -15 -25 -25 -16 -9 -29 -21 -29 -27 0 -5 -5
-9 -11 -9 -5 0 -8 4 -4 9 3 5 1 12 -4 15 -4 3 -8 -4 -7 -17 1 -13 -4 -21 -11
-19 -7 1 -13 -2 -13 -8 0 -9 -113 -71 -126 -69 -4 0 -10 -5 -15 -12 -4 -8 -21
-14 -36 -15 -15 0 -39 -2 -53 -3 -22 -2 -23 -3 -6 -10 18 -7 18 -8 2 -14 -10
-4 -22 -5 -27 -1 -5 3 -9 0 -9 -6 0 -7 -6 -10 -14 -7 -8 3 -16 1 -18 -5 -2 -6
-13 -12 -24 -13 -10 -1 -27 -6 -36 -10 -10 -4 -25 -4 -34 -1 -8 3 -12 2 -9 -4
3 -6 0 -11 -7 -12 -7 0 -24 -2 -38 -4 -14 -2 -68 -10 -120 -18 -67 -11 -138
-14 -240 -11 -156 5 -171 6 -240 25 -25 7 -55 12 -68 12 -16 0 -20 4 -13 12 7
8 4 12 -9 12 -10 0 -16 -4 -14 -8 3 -4 3 -8 1 -8 -6 0 -75 25 -112 41 -16 7
-33 13 -37 13 -3 1 -10 4 -14 8 -4 5 -14 8 -22 8 -9 0 -24 8 -35 17 -11 10
-17 12 -13 5 5 -8 -9 -2 -30 12 -22 14 -49 30 -61 35 -11 6 -25 16 -29 23 -6
10 -5 11 7 1 13 -10 16 -10 16 1 0 8 -12 12 -34 10 -18 -1 -33 2 -33 6 0 4
-11 12 -25 18 -14 6 -25 17 -25 24 0 9 3 8 10 -2 5 -8 10 -10 10 -5 -1 6 -7
19 -15 29 -13 17 -17 17 -32 5 -11 -9 -14 -10 -9 -1 4 7 1 12 -8 12 -9 0 -16
5 -16 11 0 5 -4 8 -8 5 -4 -2 -14 -1 -22 5 -20 12 30 12 85 0 22 -5 67 -12
100 -15 33 -4 89 -11 125 -17 158 -24 336 -46 348 -42 6 3 12 1 12 -3 0 -5 19
-9 41 -10 34 -1 46 -7 67 -34 63 -80 208 -94 280 -28 12 12 22 25 22 29 0 5
-11 -3 -24 -16 -24 -24 -82 -45 -127 -45 -48 0 -94 22 -135 65 -38 39 -46 42
-110 49 -74 7 -634 85 -799 111 -154 24 -299 45 -313 45 -8 0 -12 6 -9 13 2 6
10 11 16 9 7 -1 10 1 7 6 -3 5 1 17 8 27 12 17 14 17 27 -11 13 -27 20 -30 99
-41 190 -25 871 -125 960 -139 89 -15 96 -18 130 -56 31 -35 42 -41 87 -45 91
-9 133 8 176 69 12 18 224 52 959 155 109 16 198 32 198 37 0 8 -181 2 -305
-10 -387 -39 -646 -87 -850 -160 -134 -48 -150 -50 -220 -24 -289 107 -633
167 -1114 196 -87 5 -111 9 -100 18 8 6 23 22 33 34 17 19 17 22 3 16 -28 -10
-19 9 24 54 37 37 39 42 19 42 -20 0 -18 4 19 47 26 31 36 50 29 54 -13 8 26
59 117 153 l57 58 -20 22 c-34 37 -52 83 -52 134 0 123 88 296 221 434 72 75
77 83 72 117 -4 33 1 41 57 99 l60 63 0 -35 c0 -65 30 -262 54 -357 40 -157
92 -264 178 -365 116 -137 100 -129 203 -104 181 44 447 139 638 228 94 45
109 55 122 86 17 40 51 149 60 189 3 18 20 37 47 55 23 15 59 44 81 65 39 36
60 50 38 24 -6 -8 -20 -63 -31 -123 -12 -60 -26 -113 -31 -119 -5 -5 -21 -9
-37 -10 -15 0 -26 -5 -25 -11 1 -7 -7 -14 -17 -17 -20 -5 -26 3 -13 16 3 4 8
21 10 39 2 17 8 37 14 44 6 8 8 21 5 30 -5 12 -2 15 9 10 11 -4 14 -2 9 6 -5
8 -2 9 10 5 10 -4 15 -3 11 3 -3 5 5 16 19 25 13 9 27 23 30 30 3 8 -17 0 -45
-18 -30 -20 -52 -42 -55 -57 -14 -57 -39 -127 -56 -158 -10 -18 -18 -34 -18
-37 0 -2 33 15 73 38 172 98 401 295 492 422 54 76 119 205 138 276 22 79 30
149 18 149 -18 0 -51 39 -51 59 0 10 9 30 21 45 25 32 68 35 94 6z m-2440
-117 c17 -109 22 -97 -47 -110 -34 -7 -64 -11 -65 -9 -2 2 -6 33 -10 69 -6 72
-12 65 62 80 48 11 54 8 60 -30z m2125 -8 c0 -8 -7 -15 -15 -15 -8 0 -15 7
-15 15 0 8 7 15 15 15 8 0 15 -7 15 -15z m-1740 -30 c0 -16 -6 -25 -16 -25 -9
0 -12 -5 -8 -11 4 -7 1 -10 -7 -7 -7 2 -23 -7 -36 -21 l-22 -26 -1 37 c0 20 5
40 10 43 6 3 10 0 10 -7 0 -10 2 -10 9 1 5 7 13 11 18 8 5 -3 15 -1 23 5 12 8
12 9 -2 4 -10 -3 -18 -1 -18 4 0 5 8 11 18 13 9 3 18 5 20 6 1 0 2 -10 2 -24z
m-110 -45 c-8 -5 -10 -10 -3 -10 17 0 3 -39 -18 -51 -11 -5 -19 -7 -19 -3 0 4
-9 -1 -20 -11 -11 -10 -20 -15 -20 -11 0 4 -6 1 -14 -6 -8 -7 -12 -16 -10 -19
4 -7 -26 -23 -38 -21 -4 1 -9 -7 -13 -17 -3 -11 -18 -27 -33 -37 -15 -9 -31
-23 -35 -31 -5 -7 -13 -10 -19 -7 -6 4 -8 3 -5 -3 3 -5 -16 -31 -43 -57 -28
-27 -50 -52 -50 -57 0 -5 -7 -9 -16 -9 -8 0 -13 4 -10 8 3 5 -8 8 -24 7 l-30
-2 33 31 c17 17 35 30 40 28 4 -1 6 1 6 5 -3 20 2 34 11 28 6 -3 10 -1 10 5 0
6 4 8 10 5 5 -3 7 0 4 8 -6 17 17 38 45 40 11 0 17 5 15 9 -3 5 -11 6 -17 2
-7 -3 4 8 23 24 19 17 37 29 39 27 1 -2 8 0 15 6 93 77 123 94 144 78 14 -11
15 -11 5 1 -18 20 -16 31 4 23 10 -4 14 -2 10 4 -7 11 6 21 28 22 6 0 3 -4 -5
-9z m-330 -128 c0 -8 -3 -12 -7 -10 -73 33 -153 81 -153 92 0 10 24 2 80 -27
44 -23 80 -48 80 -55z m395 38 c-3 -5 -12 -10 -18 -10 -7 0 -6 4 3 10 19 12
23 12 15 0z m-527 -9 c9 -5 31 -15 49 -22 17 -7 29 -17 26 -23 -3 -5 -1 -6 5
-2 14 8 55 -17 45 -27 -3 -4 -13 -1 -21 6 -11 8 -14 8 -9 0 11 -18 -13 -62
-31 -56 -10 4 -13 2 -8 -5 7 -12 -48 -74 -58 -65 -6 6 -10 -12 -7 -29 0 -5 -8
-8 -19 -8 -11 0 -29 -9 -39 -19 -11 -11 -21 -17 -24 -15 -5 5 1 -55 7 -71 2
-6 -3 -24 -10 -40 -8 -17 -12 -22 -9 -12 2 9 -1 17 -6 17 -15 0 -1 132 15 142
6 4 7 8 1 8 -5 0 -3 5 5 10 11 7 11 10 2 10 -7 0 -11 4 -8 8 5 8 15 49 20 82
5 33 18 60 28 60 7 0 6 5 -1 14 -7 9 -8 17 -2 20 5 3 12 0 15 -6 3 -7 3 -3 0
10 -6 24 5 28 34 13z m309 -164 c0 -8 -6 -14 -14 -14 -9 0 -10 4 -2 14 6 7 12
13 14 13 1 0 2 -6 2 -13z m-227 -108 c0 -5 -7 -9 -15 -9 -15 0 -20 12 -9 23 8
8 24 -1 24 -14z m1965 -49 c3 -6 -1 -7 -10 -4 -9 4 -15 3 -14 -2 4 -23 -2 -33
-18 -27 -11 4 -14 3 -9 -5 4 -7 1 -12 -9 -12 -9 0 -14 -4 -11 -9 7 -10 -24
-25 -33 -16 -6 6 78 85 91 85 4 0 10 -4 13 -10z m-1991 -15 c-4 -8 -10 -12
-15 -9 -11 6 -2 24 11 24 5 0 7 -7 4 -15z m-172 -112 c-5 -7 -8 5 -9 30 -1 38
0 39 8 13 4 -16 5 -35 1 -43z m398 -148 c0 -8 -7 -15 -15 -15 -8 0 -15 7 -15
15 0 8 7 15 15 15 8 0 15 -7 15 -15z m1931 -20 c-1 -15 -24 -12 -29 3 -3 9 2
13 12 10 10 -1 17 -7 17 -13z m-21 -120 c0 -8 -7 -15 -15 -15 -8 0 -15 7 -15
15 0 8 7 15 15 15 8 0 15 -7 15 -15z m-2330 -70 c0 -5 -5 -3 -10 5 -5 8 -10
20 -10 25 0 6 5 3 10 -5 5 -8 10 -19 10 -25z m10 -59 c0 -26 -6 -18 -14 19 -5
22 -4 26 4 15 5 -8 10 -24 10 -34z m2502 -221 c11 -20 11 -20 -11 0 -13 11
-28 29 -33 40 -11 20 -11 20 11 0 13 -11 28 -29 33 -40z m-2262 -139 c0 -2 -7
-9 -15 -16 -13 -11 -14 -10 -9 4 5 14 24 23 24 12z m-70 -121 c-7 -9 -15 -13
-17 -11 -7 7 7 26 19 26 6 0 6 -6 -2 -15z m-45 -91 c-18 -18 -25 -18 -25 1 0
8 5 15 11 15 5 0 7 6 3 13 -6 8 -3 8 9 -1 14 -12 14 -16 2 -28z m475 -104 c18
-12 2 -12 -25 0 -13 6 -15 9 -5 9 8 0 22 -4 30 -9z m80 -4 c0 -2 -9 -6 -20 -9
-11 -3 -18 -1 -14 4 5 9 34 13 34 5z m37 -12 c-3 -3 -12 -4 -19 -1 -8 3 -5 6
6 6 11 1 17 -2 13 -5z m1450 0 c-3 -3 -12 -4 -19 -1 -8 3 -5 6 6 6 11 1 17 -2
13 -5z m-89 -11 c-10 -2 -26 -2 -35 0 -10 3 -2 5 17 5 19 0 27 -2 18 -5z
m-1230 -10 c-10 -2 -26 -2 -35 0 -10 3 -2 5 17 5 19 0 27 -2 18 -5z m66 -12
c4 -5 -3 -7 -14 -4 -23 6 -26 13 -6 13 8 0 17 -4 20 -9z m-349 -50 c3 -5 1
-12 -5 -16 -5 -3 -10 1 -10 9 0 18 6 21 15 7z m769 -73 c-3 -4 11 -8 30 -8 20
0 36 -4 36 -9 0 -9 -76 2 -87 13 -4 4 -8 13 -9 21 -2 11 2 12 16 2 10 -6 16
-15 14 -19z m174 3 c-27 -21 -88 -35 -88 -21 0 6 11 10 25 10 13 0 30 6 36 13
7 7 21 14 31 14 17 2 16 0 -4 -16z"/>
<path d="M2805 3860 c-3 -6 1 -7 9 -4 18 7 21 14 7 14 -6 0 -13 -4 -16 -10z"/>
<path d="M1993 3815 c0 -8 4 -12 9 -9 5 3 6 10 3 15 -9 13 -12 11 -12 -6z"/>
<path d="M1953 3795 c0 -8 4 -12 9 -9 4 3 8 9 8 15 0 5 -4 9 -8 9 -5 0 -9 -7
-9 -15z"/>
<path d="M2220 3779 c0 -5 5 -7 10 -4 6 3 10 8 10 11 0 2 -4 4 -10 4 -5 0 -10
-5 -10 -11z"/>
<path d="M1565 3570 c-2 -3 10 -6 26 -5 16 0 29 3 29 7 0 9 -50 7 -55 -2z"/>
<path d="M1788 3443 c7 -3 16 -2 19 1 4 3 -2 6 -13 5 -11 0 -14 -3 -6 -6z"/>
<path d="M1346 3278 c3 -5 10 -6 15 -3 13 9 11 12 -6 12 -8 0 -12 -4 -9 -9z"/>
<path d="M1440 3285 c0 -5 5 -17 10 -25 5 -8 10 -10 10 -5 0 6 -5 17 -10 25
-5 8 -10 11 -10 5z"/>
<path d="M1229 3123 c-13 -16 -12 -17 4 -4 9 7 17 15 17 17 0 8 -8 3 -21 -13z"/>
<path d="M1395 3040 c-3 -5 -2 -10 4 -10 5 0 13 5 16 10 3 6 2 10 -4 10 -5 0
-13 -4 -16 -10z"/>
<path d="M2318 3893 c7 -3 16 -2 19 1 4 3 -2 6 -13 5 -11 0 -14 -3 -6 -6z"/>
<path d="M2500 3834 c0 -36 0 -37 20 -19 11 10 20 22 20 26 0 5 -9 13 -20 19
-18 10 -20 8 -20 -26z"/>
<path d="M2660 3844 c0 -8 5 -12 10 -9 6 3 10 10 10 16 0 5 -4 9 -10 9 -5 0
-10 -7 -10 -16z"/>
<path d="M2856 3795 c-10 -8 -23 -16 -29 -18 -6 -2 -5 -16 3 -39 l14 -37 30
17 c17 9 32 17 34 18 3 1 -27 74 -31 74 -1 0 -11 -7 -21 -15z m24 -41 c0 -17
-26 -19 -36 -3 -7 12 15 31 28 23 4 -3 8 -12 8 -20z"/>
<path d="M3158 3723 c7 -3 16 -2 19 1 4 3 -2 6 -13 5 -11 0 -14 -3 -6 -6z"/>
<path d="M2484 3575 c1 -19 -2 -35 -7 -35 -4 0 -5 -5 -2 -10 4 -6 11 -8 16 -5
10 7 9 85 -2 85 -4 0 -6 -16 -5 -35z"/>
<path d="M2305 3530 c-3 -5 -1 -10 4 -10 6 0 11 5 11 10 0 6 -2 10 -4 10 -3 0
-8 -4 -11 -10z"/>
<path d="M2265 3510 c3 -5 8 -10 11 -10 2 0 4 5 4 10 0 6 -5 10 -11 10 -5 0
-7 -4 -4 -10z"/>
<path d="M2225 3498 c21 -12 23 -12 28 -1 1 3 -9 8 -23 9 -23 4 -24 3 -5 -8z"/>
<path d="M2470 3488 c-68 -31 -114 -48 -207 -79 -56 -18 -100 -35 -98 -37 5
-5 226 67 240 78 6 5 29 14 52 20 36 11 49 11 88 -5 26 -9 44 -19 42 -21 -2
-2 -20 3 -40 11 -41 17 -71 20 -62 6 3 -5 0 -13 -6 -17 -8 -4 -9 -3 -5 4 10
17 -4 15 -75 -12 -109 -41 -271 -94 -349 -114 -41 -11 -110 -37 -152 -58 -65
-33 -75 -42 -67 -56 7 -12 6 -25 -1 -38 -15 -29 -2 -26 87 20 141 72 463 195
558 212 11 3 19 10 17 17 -2 9 3 11 15 6 156 -62 464 -163 523 -171 8 -1 28
-7 43 -13 38 -15 47 -14 47 5 0 8 4 13 8 10 5 -3 8 -20 6 -38 -1 -18 -3 -94
-4 -168 -2 -74 -6 -173 -11 -220 -5 -47 -11 -114 -14 -149 -4 -40 -3 -61 3
-57 6 3 13 0 15 -6 3 -7 5 -2 5 12 0 14 7 88 16 165 9 77 16 215 16 306 l0
166 -32 11 c-33 12 -33 12 -3 6 17 -3 36 -12 43 -21 11 -15 12 -15 12 3 0 16
-16 23 -98 42 -108 26 -423 127 -519 166 -35 15 -64 26 -65 25 -2 0 -14 -5
-28 -11z m70 -48 c8 -5 11 -10 5 -10 -5 0 -17 5 -25 10 -8 5 -10 10 -5 10 6 0
17 -5 25 -10z m207 -44 c89 -32 305 -96 329 -97 15 -1 16 -2 3 -6 -24 -6 -395
103 -418 123 -11 10 24 2 86 -20z m-367 10 c0 -3 -4 -8 -10 -11 -5 -3 -10 -1
-10 4 0 6 5 11 10 11 6 0 10 -2 10 -4z m306 -22 c10 -8 13 -12 6 -9 -8 4 -26
11 -40 15 -22 7 -23 8 -6 9 11 1 29 -6 40 -15z m-386 -8 c0 -2 -7 -7 -16 -10
-8 -3 -12 -2 -9 4 6 10 25 14 25 6z m451 -14 c-7 -2 -18 1 -23 6 -8 8 -4 9 13
5 13 -4 18 -8 10 -11z m86 -26 c21 -7 57 -19 81 -26 23 -7 40 -15 38 -17 -4
-4 -102 21 -136 34 -8 3 -21 7 -28 9 -8 1 -16 5 -20 8 -10 11 27 6 65 -8z
m-672 -6 c-3 -5 -16 -10 -28 -9 -20 1 -20 2 3 9 14 4 26 8 28 9 2 1 0 -3 -3
-9z m-48 -26 c-3 -3 -12 -4 -19 -1 -8 3 -5 6 6 6 11 1 17 -2 13 -5z m-72 -14
c8 -13 -5 -13 -25 0 -13 8 -13 10 2 10 9 0 20 -4 23 -10z m-58 -44 c-29 -11
-65 -27 -82 -36 -40 -22 -64 -15 -34 11 12 10 26 19 30 19 4 0 20 5 36 12 15
6 39 10 52 9 15 -2 21 1 16 8 -3 6 -11 8 -17 5 -6 -4 -8 -2 -5 4 5 7 14 7 31
-1 24 -11 23 -12 -27 -31z m1058 28 c36 -9 65 -20 65 -25 0 -5 -1 -9 -2 -9
-15 3 -141 49 -135 49 4 1 37 -6 72 -15z m102 -186 c-3 -8 -6 -5 -6 6 -1 11 2
17 5 13 3 -3 4 -12 1 -19z"/>
<path d="M2038 3433 c7 -3 16 -2 19 1 4 3 -2 6 -13 5 -11 0 -14 -3 -6 -6z"/>
<path d="M1982 3421 c-10 -6 -6 -11 17 -19 19 -7 33 -7 36 -1 4 5 -1 9 -9 9
-9 0 -16 5 -16 10 0 12 -10 13 -28 1z"/>
<path d="M1970 3390 c0 -24 14 -37 33 -34 23 3 33 12 23 21 -4 4 -11 1 -15 -6
-7 -10 -12 -8 -25 10 -10 15 -16 18 -16 9z"/>
<path d="M2528 3383 c-10 -2 -18 -9 -18 -15 0 -6 9 -8 23 -3 12 3 27 7 34 7 7
1 10 5 7 10 -5 8 -17 9 -46 1z"/>
<path d="M2105 3360 c-13 -5 -14 -9 -5 -9 8 0 24 4 35 9 13 5 14 9 5 9 -8 0
-24 -4 -35 -9z"/>
<path d="M2335 3325 c-244 -81 -576 -235 -506 -235 14 0 15 -117 1 -125 -6 -4
-7 1 -3 12 6 15 5 16 -9 3 -9 -8 -12 -16 -8 -18 11 -4 1 -32 -12 -32 -5 0 -6
6 -2 13 4 6 -5 1 -20 -13 -14 -13 -24 -30 -22 -37 3 -8 -3 -22 -14 -33 -11
-11 -16 -20 -11 -20 5 0 25 18 45 40 20 23 40 38 45 35 5 -2 8 3 7 13 0 9 5
16 12 14 6 -1 12 6 12 16 0 10 3 22 6 25 12 11 12 82 0 96 -8 11 -8 13 2 7 7
-4 12 -2 12 7 0 8 15 20 33 28 17 7 44 21 58 30 14 10 30 15 34 11 5 -4 5 -1
1 6 -4 7 -1 12 7 12 8 0 28 7 43 15 16 8 37 15 46 15 9 0 20 5 23 11 4 6 13 8
21 5 8 -3 14 -1 14 4 0 9 77 35 93 32 4 -1 7 3 7 9 0 5 4 8 9 5 13 -9 42 4 35
16 -3 5 0 8 7 7 8 -2 31 3 51 10 21 7 42 10 48 6 5 -3 10 -1 10 5 0 6 6 10 13
9 30 -4 48 2 41 13 -4 7 -3 8 4 4 8 -5 11 -59 11 -176 l-2 -169 -31 16 c-17 9
-33 19 -36 23 -8 11 -81 33 -118 36 -18 1 -31 0 -28 -3 3 -3 -4 -14 -15 -26
-22 -24 -21 -8 -19 -391 0 -154 5 -287 10 -296 5 -10 7 -20 4 -23 -3 -3 4 -8
15 -12 12 -3 21 -11 21 -16 0 -5 7 -9 16 -9 9 0 12 -5 8 -12 -4 -7 7 -2 24 11
26 18 35 20 54 11 21 -10 21 -10 5 3 -17 14 -17 15 0 21 35 13 82 43 77 49 -3
3 3 3 15 0 14 -4 21 -1 21 9 0 8 10 20 23 26 23 12 25 14 120 75 32 20 63 34
69 31 6 -4 8 -3 5 3 -7 12 70 50 91 45 8 -2 11 1 8 7 -4 6 9 21 28 33 36 23
42 31 56 80 7 22 4 32 -15 50 -12 12 -21 28 -18 35 3 7 0 13 -7 13 -6 0 -8 -4
-5 -10 3 -5 1 -10 -4 -10 -6 0 -11 5 -11 10 0 6 -7 10 -15 10 -8 0 -15 7 -15
15 0 8 -5 15 -11 15 -5 0 -7 -5 -4 -11 4 -6 -2 -5 -13 2 -12 7 -18 17 -15 23
4 5 1 6 -6 1 -7 -4 -22 2 -36 15 -13 12 -28 19 -33 16 -5 -3 -17 3 -27 14 -10
11 -24 20 -32 20 -7 0 -13 5 -13 11 0 5 -4 8 -9 5 -4 -3 -18 5 -31 19 -13 14
-28 21 -38 18 -10 -4 -13 -2 -8 5 4 8 2 10 -7 6 -8 -3 -18 0 -22 6 -4 7 -7 99
-7 206 0 174 -2 194 -16 193 -10 0 -75 -20 -147 -44z m115 -338 c69 -41 154
-92 190 -114 36 -22 93 -55 128 -73 83 -44 112 -72 112 -108 0 -32 -20 -54
-85 -92 -93 -53 -162 -95 -200 -120 -22 -15 -67 -42 -100 -60 -33 -18 -83 -48
-112 -66 -59 -39 -85 -42 -113 -14 -19 19 -20 33 -20 348 0 316 1 329 20 350
12 12 29 22 38 22 10 0 74 -33 142 -73z m-670 -78 c-7 -11 -14 -18 -17 -15 -3
3 0 12 7 21 18 21 23 19 10 -6z"/>
<path d="M2276 3021 c-4 -6 -2 -11 4 -11 6 0 8 -5 4 -11 -3 -6 -2 -14 4 -18 5
-3 27 -35 48 -71 20 -36 40 -67 43 -70 17 -14 40 -73 35 -88 -5 -14 -4 -14 4
-2 9 12 13 9 21 -13 6 -15 15 -27 21 -27 6 0 9 -4 6 -9 -3 -5 -23 -7 -44 -5
-124 12 -152 12 -152 1 0 -8 26 -12 78 -13 42 -1 96 -4 119 -7 23 -3 110 -7
193 -9 83 -1 157 -7 163 -11 7 -6 4 -6 -8 -2 -14 4 -17 3 -9 -5 13 -13 40 -4
48 16 4 9 -2 14 -17 15 -12 0 -33 2 -47 3 -14 1 -89 3 -166 4 -125 2 -142 4
-148 20 -3 9 -19 37 -35 62 -17 25 -41 65 -54 90 -48 90 -105 172 -111 161z"/>
<path d="M2675 2796 c-17 -12 -15 -13 19 -11 21 2 41 7 44 11 4 4 -6 4 -21 0
-19 -4 -26 -3 -22 4 8 14 2 13 -20 -4z"/>
<path d="M2815 2720 c-3 -5 -4 -10 -1 -10 2 0 11 -3 20 -6 11 -4 16 -1 16 10
0 18 -25 22 -35 6z"/>
<path d="M2670 2560 c-9 -6 -10 -10 -3 -10 6 0 15 5 18 10 8 12 4 12 -15 0z"/>
<path d="M2385 2550 c-3 -5 -1 -10 4 -10 6 0 11 5 11 10 0 6 -2 10 -4 10 -3 0
-8 -4 -11 -10z"/>
<path d="M2272 2515 c0 -16 2 -22 5 -12 2 9 2 23 0 30 -3 6 -5 -1 -5 -18z"/>
<path d="M2375 2520 c6 -10 4 -12 -8 -7 -11 4 -14 2 -10 -9 3 -8 0 -21 -7 -29
-7 -8 -9 -15 -4 -15 16 0 44 59 32 66 -7 5 -8 2 -3 -6z"/>
<path d="M2564 2494 c-18 -14 -18 -14 6 -3 31 14 36 19 24 19 -6 0 -19 -7 -30
-16z"/>
<path d="M2317 2429 c-10 -11 -16 -26 -14 -32 2 -7 11 3 21 21 19 37 17 40 -7
11z"/>
<path d="M2282 2370 c0 -14 2 -19 5 -12 2 6 2 18 0 25 -3 6 -5 1 -5 -13z"/>
<path d="M3255 3344 c-16 -13 -29 -29 -27 -34 1 -6 -5 -10 -13 -10 -8 0 -15
-4 -15 -10 0 -15 6 -12 37 18 30 28 58 62 52 62 -2 -1 -17 -12 -34 -26z"/>
<path d="M2550 3350 c-9 -6 -10 -10 -3 -10 6 0 15 5 18 10 8 12 4 12 -15 0z"/>
<path d="M2584 3344 c-18 -14 -18 -15 4 -4 12 6 22 13 22 15 0 8 -5 6 -26 -11z"/>
<path d="M1988 3323 c7 -3 16 -2 19 1 4 3 -2 6 -13 5 -11 0 -14 -3 -6 -6z"/>
<path d="M1878 3302 c-43 -12 -58 -21 -58 -34 0 -22 -4 -23 56 5 27 13 60 28
74 34 38 18 -2 15 -72 -5z"/>
<path d="M3173 3205 c0 -22 2 -30 4 -17 2 12 2 30 0 40 -3 9 -5 -1 -4 -23z"/>
<path d="M2088 3193 c6 -2 18 -2 25 0 6 3 1 5 -13 5 -14 0 -19 -2 -12 -5z"/>
<path d="M3174 3050 c0 -63 1 -89 3 -57 2 31 2 83 0 115 -2 31 -3 5 -3 -58z"/>
<path d="M1895 3099 c-11 -16 -1 -19 13 -3 7 8 8 14 3 14 -5 0 -13 -5 -16 -11z"/>
<path d="M1920 3030 c0 -5 5 -10 10 -10 6 0 10 5 10 10 0 6 -4 10 -10 10 -5 0
-10 -4 -10 -10z"/>
<path d="M1935 3000 c3 -5 8 -10 11 -10 2 0 4 5 4 10 0 6 -5 10 -11 10 -5 0
-7 -4 -4 -10z"/>
<path d="M1652 2954 c-12 -8 -22 -21 -22 -27 0 -7 5 -4 11 6 5 9 15 17 20 17
6 0 7 -6 3 -12 -4 -7 -3 -9 1 -5 8 6 17 37 11 37 -1 0 -12 -7 -24 -16z"/>
<path d="M3491 2956 c-15 -18 -3 -48 18 -44 21 4 27 44 7 51 -8 3 -19 0 -25
-7z"/>
<path d="M2192 2870 c0 -19 2 -27 5 -17 2 9 2 25 0 35 -3 9 -5 1 -5 -18z"/>
<path d="M3162 2860 c0 -19 2 -27 5 -17 2 9 2 25 0 35 -3 9 -5 1 -5 -18z"/>
<path d="M1555 2860 c6 -30 16 -40 12 -12 -2 12 -6 24 -10 28 -3 4 -4 -4 -2
-16z"/>
<path d="M1598 2816 c-25 -19 -48 -42 -51 -50 -4 -9 -14 -16 -22 -16 -10 0
-13 -5 -9 -12 5 -8 2 -9 -10 -5 -10 4 -15 3 -11 -3 7 -12 -12 -50 -26 -50 -6
0 -3 7 5 16 23 22 20 30 -4 9 -11 -10 -17 -21 -15 -26 3 -4 -8 -23 -24 -41
-16 -18 -29 -36 -30 -40 0 -5 -4 -8 -7 -7 -14 1 -45 -64 -38 -80 4 -9 6 -19 6
-23 -1 -4 10 -11 24 -14 20 -5 23 -9 12 -16 -10 -8 -10 -8 2 -4 8 3 22 9 32
12 18 7 31 38 28 71 -2 28 81 155 97 149 7 -3 15 0 19 6 5 7 2 8 -6 3 -10 -6
-12 -4 -7 9 4 10 7 20 7 22 0 3 5 2 10 -1 6 -3 10 -2 10 4 0 12 76 92 82 86 3
-3 5 1 5 9 0 21 -86 -54 -144 -127 -85 -107 -96 -124 -97 -164 -1 -31 -5 -39
-22 -41 -43 -6 -58 54 -16 64 9 3 28 23 40 45 29 49 122 161 177 211 51 47 42
49 -17 4z"/>
<path d="M3247 2825 c-4 -8 -2 -17 2 -20 5 -2 11 4 14 15 6 23 -8 27 -16 5z"/>
<path d="M2190 2774 c0 -8 5 -12 10 -9 6 4 8 11 5 16 -9 14 -15 11 -15 -7z"/>
<path d="M3041 2774 c0 -11 3 -14 6 -6 3 7 2 16 -1 19 -3 4 -6 -2 -5 -13z"/>
<path d="M1650 2776 c0 -2 7 -7 16 -10 8 -3 12 -2 9 4 -6 10 -25 14 -25 6z"/>
<path d="M1174 2725 c-4 -9 -2 -21 4 -27 15 -15 44 -1 40 19 -4 23 -36 29 -44
8z"/>
<path d="M2193 2610 c0 -25 2 -35 4 -22 2 12 2 32 0 45 -2 12 -4 2 -4 -23z"/>
<path d="M1335 2610 c-3 -5 -1 -10 4 -10 6 0 11 5 11 10 0 6 -2 10 -4 10 -3 0
-8 -4 -11 -10z"/>
<path d="M3068 2599 c-10 -5 -18 -15 -18 -22 0 -9 3 -8 9 1 4 7 18 14 29 15
12 1 22 5 22 9 0 11 -21 9 -42 -3z"/>
<path d="M1190 2589 c0 -5 5 -7 10 -4 6 3 10 8 10 11 0 2 -4 4 -10 4 -5 0 -10
-5 -10 -11z"/>
<path d="M3022 2558 c-16 -16 -15 -58 2 -58 7 0 20 8 27 18 13 16 13 16 -5 2
-18 -14 -19 -13 -14 18 2 17 4 32 3 32 0 0 -6 -5 -13 -12z"/>
<path d="M1471 2544 c0 -11 3 -14 6 -6 3 7 2 16 -1 19 -3 4 -6 -2 -5 -13z"/>
<path d="M2193 2515 c0 -27 2 -38 4 -22 2 15 2 37 0 50 -2 12 -4 0 -4 -28z"/>
<path d="M2801 2534 c0 -11 3 -14 6 -6 3 7 2 16 -1 19 -3 4 -6 -2 -5 -13z"/>
<path d="M2740 2502 c-14 -9 -27 -19 -30 -23 -3 -3 -35 -23 -72 -45 -38 -21
-68 -42 -68 -46 0 -10 36 8 45 22 4 6 11 8 16 5 5 -4 9 -2 9 3 0 5 11 14 24
20 28 13 121 82 109 81 -4 0 -19 -8 -33 -17z"/>
<path d="M1365 2461 c-3 -5 -2 -12 3 -15 5 -3 9 1 9 9 0 17 -3 19 -12 6z"/>
<path d="M2968 2427 c-20 -16 -6 -47 22 -47 22 0 31 19 18 43 -10 20 -17 21
-40 4z m32 -22 c0 -8 -4 -15 -9 -15 -13 0 -22 16 -14 24 11 11 23 6 23 -9z"/>
<path d="M2551 2388 c-1 -12 -6 -15 -18 -11 -10 4 -14 2 -10 -4 4 -6 1 -14 -5
-16 -7 -3 -8 -6 -2 -6 19 -2 47 25 41 40 -4 10 -6 10 -6 -3z"/>
<path d="M1105 2350 c-3 -6 1 -7 9 -4 18 7 21 14 7 14 -6 0 -13 -4 -16 -10z"/>
<path d="M1343 2344 c-3 -8 2 -23 11 -32 20 -20 49 -6 54 27 3 18 -2 21 -28
21 -19 0 -33 -6 -37 -16z m42 -24 c-5 -8 -11 -8 -17 -2 -6 6 -7 16 -3 22 5 8
11 8 17 2 6 -6 7 -16 3 -22z"/>
<path d="M2964 2348 c-4 -6 -3 -8 4 -4 5 3 12 1 14 -6 3 -8 6 -9 11 -1 4 6 0
13 -8 17 -8 3 -17 0 -21 -6z"/>
<path d="M2036 2267 c3 -10 9 -15 12 -12 3 3 0 11 -7 18 -10 9 -11 8 -5 -6z"/>
<path d="M2815 2260 c-3 -6 1 -7 9 -4 18 7 21 14 7 14 -6 0 -13 -4 -16 -10z"/>
<path d="M1152 2248 c-33 -33 1 -78 48 -63 37 12 20 75 -20 75 -9 0 -21 -5
-28 -12z m37 -22 c13 -15 1 -29 -14 -18 -13 9 -17 32 -6 32 5 0 14 -6 20 -14z"/>
<path d="M2165 2194 c-12 -12 -13 -19 -4 -30 6 -8 8 -14 3 -14 -20 0 20 -25
41 -25 20 -1 22 2 12 14 -10 12 -9 14 3 9 12 -4 15 1 14 19 -1 41 -40 56 -69
27z m43 -21 c-4 -22 -22 -20 -26 1 -2 10 3 16 13 16 10 0 15 -7 13 -17z"/>
<path d="M2328 2073 c6 -2 18 -2 25 0 6 3 1 5 -13 5 -14 0 -19 -2 -12 -5z"/>
<path d="M1901 3688 c-14 -40 -14 -45 2 -45 6 0 23 -3 37 -8 24 -8 24 -7 7 18
-9 15 -17 33 -17 41 0 29 -18 25 -29 -6z"/>
<path d="M1732 3595 c12 -27 28 -24 28 6 0 12 -7 19 -20 19 -17 0 -18 -3 -8
-25z"/>
<path d="M3890 3240 c0 -5 5 -10 11 -10 5 0 7 5 4 10 -3 6 -8 10 -11 10 -2 0
-4 -4 -4 -10z"/>
<path d="M3775 3296 c-17 -12 -18 -18 -7 -40 12 -28 40 -34 60 -14 18 18 14
46 -7 58 -25 13 -23 13 -46 -4z m40 -26 c3 -6 -1 -7 -9 -4 -18 7 -21 14 -7 14
6 0 13 -4 16 -10z"/>
<path d="M1806 2813 c-3 -3 0 -13 7 -21 10 -13 9 -15 -8 -9 -17 6 -18 5 -5 -5
8 -7 16 -29 17 -48 1 -19 9 -73 17 -119 8 -47 12 -89 9 -94 -3 -6 -2 -7 4 -4
12 8 36 -84 27 -106 -3 -10 -1 -17 5 -17 7 0 14 -8 18 -17 3 -10 19 -46 34
-81 16 -35 29 -69 29 -76 0 -7 11 -23 25 -36 13 -12 23 -26 22 -29 -1 -4 9
-18 21 -31 13 -14 28 -35 33 -48 5 -13 13 -21 17 -18 8 5 29 -14 45 -40 8 -14
-62 -15 -90 -2 -13 6 -23 17 -23 24 0 6 -7 15 -16 18 -9 3 -14 12 -11 19 3 8
-1 14 -9 14 -8 0 -14 -3 -14 -7 0 -9 41 -62 54 -72 15 -10 -20 -21 -49 -16
-14 3 -25 2 -25 -2 0 -4 -29 -7 -65 -5 -35 1 -62 -2 -59 -6 7 -12 145 -11 262
2 l98 11 -51 52 c-112 113 -186 240 -233 401 -24 81 -62 284 -62 331 0 32 -11
50 -24 37z"/>
<path d="M3686 2767 c3 -10 9 -15 12 -12 3 3 0 11 -7 18 -10 9 -11 8 -5 -6z"/>
<path d="M3637 2705 c-4 -8 -3 -16 1 -19 4 -3 9 4 9 15 2 23 -3 25 -10 4z"/>
<path d="M3725 2680 c-4 -7 -3 -16 3 -22 14 -14 45 -2 40 15 -6 16 -34 21 -43
7z"/>
<path d="M1679 2593 c-154 -162 -246 -393 -195 -491 8 -15 23 -35 34 -45 19
-18 20 -18 33 1 8 11 31 38 52 61 l38 42 72 -15 c40 -8 108 -26 152 -40 43
-14 81 -24 83 -22 7 8 -32 45 -41 39 -6 -4 -7 -1 -3 6 5 7 -3 28 -17 49 -52
76 -106 235 -127 372 -7 47 -16 88 -20 93 -4 4 -31 -18 -61 -50z m48 21 c-3
-3 -1 -18 4 -33 6 -14 15 -53 20 -86 16 -98 56 -217 100 -288 40 -67 44 -96
11 -78 -18 10 -24 11 -48 11 -8 0 -13 4 -10 9 3 4 -6 6 -19 3 -15 -2 -25 0
-25 7 0 6 -3 10 -7 10 -5 -1 -10 -1 -13 0 -3 1 -18 4 -35 6 -16 2 -42 6 -57 8
-15 2 -25 1 -23 -3 6 -9 -66 -66 -78 -62 -5 1 -6 -2 -3 -7 7 -11 -3 -41 -14
-41 -5 0 -7 9 -5 20 2 11 -1 19 -8 17 -17 -3 -32 92 -18 115 6 10 14 34 17 54
7 45 39 120 59 140 8 9 15 22 15 31 0 12 3 13 13 5 19 -16 59 -11 52 6 -3 9 0
12 8 9 7 -3 13 3 13 14 0 14 -3 16 -15 6 -12 -10 -14 -9 -8 5 4 12 2 15 -9 11
-10 -4 -12 0 -8 11 3 9 10 13 15 10 5 -3 9 1 9 10 0 8 4 16 8 18 4 2 18 18 31
36 12 17 25 32 28 32 4 0 4 -3 0 -6z m-89 -136 c-6 -18 -28 -21 -28 -4 0 9 7
16 16 16 9 0 14 -5 12 -12z"/>
<path d="M1559 2373 c-13 -16 -12 -17 4 -4 9 7 17 15 17 17 0 8 -8 3 -21 -13z"/>
<path d="M1657 2282 c-17 -19 -14 -52 5 -52 5 0 7 -4 4 -9 -3 -5 3 -11 14 -14
11 -3 18 -1 14 4 -3 5 2 9 10 9 16 0 42 38 32 48 -3 3 -6 -1 -6 -9 0 -8 -6 -3
-13 11 -16 32 -38 36 -60 12z m43 -22 c0 -13 -7 -20 -20 -20 -19 0 -27 20 -13
33 13 14 33 6 33 -13z"/>
<path d="M1817 2189 c7 -7 15 -10 18 -7 3 3 -2 9 -12 12 -14 6 -15 5 -6 -5z"/>
<path d="M3796 2604 c-5 -14 -4 -15 9 -4 17 14 19 20 6 20 -5 0 -12 -7 -15
-16z"/>
<path d="M3850 2590 c-9 -6 -10 -10 -3 -10 6 0 15 5 18 10 8 12 4 12 -15 0z"/>
<path d="M3813 2551 c-10 -15 -9 -22 7 -36 15 -13 23 -14 39 -5 24 12 25 19 7
43 -17 22 -38 22 -53 -2z m37 -16 c0 -8 -4 -15 -10 -15 -5 0 -10 7 -10 15 0 8
5 15 10 15 6 0 10 -7 10 -15z"/>
<path d="M3621 2462 c-9 -17 -7 -24 15 -40 l27 -19 -28 -26 c-24 -22 -26 -28
-16 -41 11 -13 10 -17 -3 -22 -9 -4 -20 -4 -23 0 -4 3 -1 6 5 6 7 0 12 4 12 9
0 7 -32 8 -72 2 -15 -2 -8 -41 10 -58 16 -17 16 -19 -1 -36 -10 -10 -23 -15
-29 -11 -7 5 -5 12 8 22 18 14 18 14 -1 7 -11 -4 -38 -14 -60 -22 -22 -8 -42
-17 -45 -20 -3 -4 2 -4 11 0 9 3 23 -2 31 -11 30 -34 66 -60 74 -54 4 4 4 -2
0 -13 -4 -11 -4 -16 0 -13 3 4 24 -2 45 -12 21 -11 44 -17 52 -14 19 7 29 54
12 54 -21 0 -27 43 -8 58 24 18 63 15 63 -4 0 -13 -8 -15 -35 -12 -22 2 -34 0
-32 -6 5 -16 56 -19 73 -5 21 17 18 26 -21 63 -19 18 -31 37 -27 41 4 5 2 6
-3 2 -6 -3 -17 -2 -25 3 -13 8 -13 11 -1 22 11 10 14 10 18 1 3 -9 10 -10 22
-3 13 6 18 5 18 -5 0 -8 -5 -11 -11 -8 -6 3 -1 -5 11 -17 22 -23 23 -23 42 -5
15 13 19 25 14 43 -5 21 -3 23 15 18 30 -10 66 27 53 53 -6 10 -8 20 -6 23 3
3 -5 4 -17 3 -12 -1 -40 11 -63 26 -58 39 -91 46 -104 21z m132 -61 c26 -12
47 -26 47 -31 0 -5 -20 -12 -44 -15 -43 -7 -44 -8 -35 -32 12 -33 11 -45 -3
-41 -7 3 -15 18 -18 34 -5 26 -9 29 -38 26 -41 -4 -43 16 -2 25 26 5 29 9 24
27 -4 11 -15 27 -25 34 -11 7 -19 20 -19 29 0 12 7 10 33 -9 17 -14 53 -35 80
-47z m-148 -113 c56 -42 59 -68 9 -68 -33 0 -36 -2 -30 -22 3 -13 6 -31 6 -40
0 -10 3 -17 8 -17 4 1 14 1 23 0 22 -1 20 -31 -3 -31 -10 0 -18 4 -18 9 0 4
-27 25 -60 46 -56 35 -74 55 -49 55 6 0 22 -9 36 -20 35 -27 43 -25 33 9 -8
29 -7 30 28 33 l36 3 -42 29 c-41 28 -53 46 -32 46 6 0 31 -15 55 -32z"/>
<path d="M3700 2403 c1 -19 19 -35 36 -31 15 3 14 6 -9 21 -15 10 -27 14 -27
10z"/>
<path d="M3170 2436 c0 -2 7 -7 16 -10 8 -3 12 -2 9 4 -6 10 -25 14 -25 6z"/>
<path d="M3366 2428 c3 -5 10 -6 15 -3 13 9 11 12 -6 12 -8 0 -12 -4 -9 -9z"/>
<path d="M3823 2415 c0 -8 4 -12 9 -9 5 3 6 10 3 15 -9 13 -12 11 -12 -6z"/>
<path d="M3344 2409 c-3 -6 -2 -15 3 -20 5 -5 9 -1 9 11 0 23 -2 24 -12 9z"/>
<path d="M3571 2374 c-18 -13 -25 -13 -39 -3 -16 12 -16 12 0 -6 14 -15 20
-16 32 -6 8 7 20 10 25 7 5 -4 12 -2 15 3 11 17 -10 20 -33 5z"/>
<path d="M3295 2369 c-11 -16 -1 -19 13 -3 7 8 8 14 3 14 -5 0 -13 -5 -16 -11z"/>
<path d="M2934 2221 c-181 -92 -477 -198 -649 -234 l-61 -12 46 -31 46 -31
124 34 c185 50 254 72 365 114 97 38 101 41 147 103 42 56 67 99 57 95 -2 -1
-36 -18 -75 -38z m-7 -39 c-10 -10 -16 -21 -15 -23 2 -2 1 -3 -1 -2 -2 1 -14
-11 -28 -28 -14 -16 -31 -29 -38 -29 -7 0 -26 -7 -41 -15 -16 -8 -39 -15 -52
-15 -13 0 -20 -4 -17 -10 3 -5 -2 -10 -12 -10 -10 -1 -55 -14 -100 -29 -46
-16 -83 -25 -83 -19 0 5 -8 2 -17 -8 -17 -16 -18 -16 -21 -1 -2 9 -8 17 -13
17 -6 0 -8 -4 -5 -9 7 -11 -50 -38 -89 -43 -16 -2 -33 -7 -37 -13 -4 -5 -20
-2 -40 8 l-33 17 32 -3 c18 -2 30 0 28 3 -7 11 63 29 87 22 13 -3 19 -1 15 5
-4 6 13 16 41 23 26 7 53 18 61 24 12 9 13 8 7 -3 -5 -8 -5 -12 0 -10 5 2 26
11 47 19 20 8 37 17 37 21 0 4 15 11 33 14 17 4 37 11 42 15 6 4 25 11 43 15
17 3 32 11 32 16 0 5 3 8 8 7 7 -2 68 24 112 48 33 18 36 17 17 -4z"/>
<path d="M2988 2112 c-47 -23 -98 -57 -130 -88 -29 -28 -87 -75 -128 -105 -79
-56 -93 -65 -175 -111 -62 -34 -44 -37 21 -3 25 14 51 22 57 18 6 -3 7 -1 3 6
-4 6 0 14 11 18 10 3 30 15 46 25 15 11 27 16 27 11 0 -4 12 5 26 20 14 15 30
24 36 21 6 -4 8 -3 5 3 -9 14 40 46 55 37 6 -4 8 -3 5 3 -11 17 79 103 103 98
11 -2 18 0 15 4 -6 10 18 21 46 21 11 0 17 5 14 10 -3 6 -3 10 2 10 4 0 19 9
33 20 36 28 15 23 -72 -18z"/>
<path d="M3470 2109 c0 -5 5 -7 10 -4 6 3 10 8 10 11 0 2 -4 4 -10 4 -5 0 -10
-5 -10 -11z"/>
<path d="M3408 2061 c-12 -50 -10 -77 3 -64 5 5 9 30 7 54 l-3 44 -7 -34z"/>
<path d="M2020 2060 c0 -5 5 -10 11 -10 5 0 7 5 4 10 -3 6 -8 10 -11 10 -2 0
-4 -4 -4 -10z"/>
<path d="M2815 2043 c-49 -27 -414 -133 -456 -133 -32 0 -22 -14 34 -47 91
-55 103 -57 161 -27 81 42 207 127 264 177 53 48 52 60 -3 30z m-89 -68 c-20
-14 -41 -25 -45 -25 -5 0 -14 -7 -22 -16 -16 -19 -149 -94 -168 -94 -17 0 -94
51 -87 57 2 2 15 5 28 7 13 1 29 5 35 9 6 4 14 3 18 -3 3 -5 2 -10 -4 -10 -6
0 -8 -7 -5 -15 9 -22 24 -8 24 21 0 21 4 24 20 19 11 -3 20 -2 20 3 0 5 6 9
13 10 6 0 30 5 51 11 22 5 44 8 48 5 4 -3 8 -1 8 4 0 10 64 39 89 41 8 1 -3
-10 -23 -24z"/>
<path d="M2478 1853 c7 -3 16 -2 19 1 4 3 -2 6 -13 5 -11 0 -14 -3 -6 -6z"/>
<path d="M3446 2034 c-9 -24 -7 -74 3 -74 11 0 20 80 10 86 -4 2 -10 -3 -13
-12z"/>
<path d="M3240 2017 c0 -10 11 -29 25 -42 l24 -25 -24 0 c-13 0 -28 -7 -33
-16 -8 -14 -11 -11 -23 15 -12 26 -29 42 -29 26 0 -13 75 -155 82 -155 13 0 9
23 -7 44 -8 11 -15 30 -15 43 0 37 50 32 73 -7 17 -28 37 -40 37 -22 0 8 -56
91 -89 132 -17 21 -21 22 -21 7z"/>
<path d="M3320 2001 c0 -11 31 -24 39 -16 3 3 -1 10 -9 15 -19 12 -30 12 -30
1z"/>
<path d="M2090 1954 c-41 -8 -124 -18 -185 -23 -86 -6 -98 -9 -55 -11 73 -4
103 -4 178 4 48 4 67 2 78 -8 20 -21 18 -25 -13 -25 -16 0 -44 -5 -63 -10 -29
-9 -23 -10 35 -6 66 5 173 21 204 31 10 3 5 11 -16 24 -17 10 -34 23 -37 29
-9 14 -30 13 -126 -5z m79 -16 c3 6 15 6 29 1 24 -9 30 -29 8 -29 -8 0 -22 -3
-32 -7 -13 -5 -15 -3 -9 7 5 9 4 11 -4 6 -13 -9 -51 2 -51 14 0 4 9 6 20 3 13
-3 20 0 21 8 0 12 1 12 6 0 3 -8 8 -9 12 -3z"/>
<path d="M3132 1958 c-7 -7 -12 -16 -12 -21 0 -5 7 -1 16 8 9 9 14 18 12 20
-2 3 -10 -1 -16 -7z"/>
<path d="M3056 1897 c-17 -12 -17 -16 -2 -51 12 -29 13 -43 5 -58 -13 -24 1
-38 39 -38 26 0 27 7 7 34 -27 36 -19 48 20 29 35 -17 53 -14 40 6 -3 6 -18
11 -32 11 -19 0 -24 4 -20 18 2 9 6 23 8 31 2 7 -1 15 -7 18 -6 2 -14 -10 -17
-27 -4 -16 -11 -30 -16 -30 -16 0 -24 40 -11 55 15 19 9 19 -14 2z m34 -117
c0 -5 -4 -10 -10 -10 -5 0 -10 5 -10 10 0 6 5 10 10 10 6 0 10 -4 10 -10z"/>
<path d="M3525 1901 c-3 -5 -2 -12 3 -15 5 -3 9 1 9 9 0 17 -3 19 -12 6z"/>
<path d="M1928 1893 c7 -3 16 -2 19 1 4 3 -2 6 -13 5 -11 0 -14 -3 -6 -6z"/>
<path d="M1981 1874 c0 -11 3 -14 6 -6 3 7 2 16 -1 19 -3 4 -6 -2 -5 -13z"/>
<path d="M2204 1875 c-34 -7 -88 -17 -120 -20 -33 -4 -64 -8 -71 -9 -7 -1 -16
-6 -20 -10 -8 -8 61 -3 150 10 32 5 47 3 47 -5 0 -6 5 -11 11 -11 5 0 8 4 4 9
-8 13 3 18 56 26 40 6 49 4 67 -15 11 -12 25 -19 31 -15 6 3 11 -1 11 -9 0 -8
5 -18 12 -22 7 -4 8 -3 4 4 -11 19 3 14 50 -15 39 -25 44 -32 42 -62 -2 -20 2
-36 10 -39 8 -2 12 11 12 46 0 48 -2 51 -32 61 -18 6 -60 29 -93 51 -65 43
-79 45 -171 25z"/>
<path d="M2810 1839 c-36 -27 -83 -58 -105 -69 -22 -11 -75 -39 -119 -64 -77
-43 -79 -44 -115 -30 -20 8 -49 22 -64 30 -16 9 -31 14 -34 11 -4 -5 56 -41
100 -59 9 -4 17 -12 17 -18 0 -5 5 -10 12 -10 6 0 9 3 5 6 -3 3 39 28 94 55
54 27 99 53 99 58 0 5 12 11 28 14 15 4 50 27 77 52 28 26 57 50 65 55 8 5 13
11 10 13 -3 3 -34 -17 -70 -44z"/>
<path d="M3670 1869 c0 -5 5 -7 10 -4 6 3 10 8 10 11 0 2 -4 4 -10 4 -5 0 -10
-5 -10 -11z"/>
<path d="M3705 1869 c-4 -6 -5 -12 -2 -15 2 -3 7 2 10 11 7 17 1 20 -8 4z"/>
<path d="M1940 1850 c0 -5 5 -10 10 -10 6 0 10 5 10 10 0 6 -4 10 -10 10 -5 0
-10 -4 -10 -10z"/>
<path d="M2336 1812 c-3 -5 1 -9 9 -9 8 0 12 4 9 9 -3 4 -7 8 -9 8 -2 0 -6 -4
-9 -8z"/>
<path d="M3619 1806 c-2 -3 -61 -14 -129 -26 -142 -24 -394 -87 -491 -124
-117 -44 -240 -105 -302 -150 -65 -46 -186 -166 -168 -166 5 0 27 17 47 38 20
20 41 36 46 34 5 -1 7 2 4 7 -7 11 20 34 33 27 13 -8 41 4 41 17 0 7 -4 7 -12
-1 -20 -20 -32 -13 -13 8 25 28 286 155 368 179 37 11 75 18 85 15 12 -4 13
-3 4 3 -9 7 5 13 45 22 32 7 77 19 101 27 42 14 167 39 265 53 37 6 50 4 54
-6 3 -7 10 -10 15 -7 6 4 5 10 -3 15 -11 7 -10 11 6 23 11 9 17 16 14 16 -3 0
-8 -2 -10 -4z"/>
<path d="M1405 1790 c-3 -5 -1 -11 4 -14 11 -7 86 -18 120 -17 13 1 29 -3 35
-8 6 -5 41 -12 79 -16 42 -4 65 -10 61 -17 -4 -6 1 -8 15 -3 12 4 27 2 34 -3
7 -6 29 -13 50 -17 20 -4 40 -11 43 -17 3 -5 14 -6 25 -3 10 4 19 2 19 -4 0
-5 8 -9 18 -9 29 3 275 -99 323 -133 15 -10 32 -19 38 -19 6 0 11 -4 11 -9 0
-5 10 -13 21 -16 15 -5 18 -9 9 -15 -10 -6 -9 -9 1 -16 7 -4 14 -3 17 4 2 6
15 0 32 -15 16 -14 27 -30 23 -36 -3 -6 -2 -8 3 -4 5 3 25 -10 44 -29 19 -19
39 -34 44 -34 17 0 -105 119 -169 165 -146 104 -446 214 -710 260 -55 9 -119
21 -143 25 -23 4 -45 4 -47 0z"/>
<path d="M2084 1786 c11 -9 24 -16 30 -16 12 0 7 5 -24 19 -24 11 -24 11 -6
-3z"/>
<path d="M2879 1773 c-13 -16 -12 -17 4 -4 16 13 21 21 13 21 -2 0 -10 -8 -17
-17z"/>
<path d="M1380 1755 c0 -8 -4 -15 -10 -15 -5 0 -10 -4 -10 -8 0 -5 21 -9 47
-11 26 -1 49 -4 52 -6 3 -2 65 -13 136 -25 72 -11 173 -32 225 -46 52 -14 102
-27 110 -29 43 -10 221 -75 260 -95 43 -23 70 -32 70 -25 0 2 -16 12 -35 21
-19 9 -35 21 -35 26 0 5 -4 7 -9 4 -5 -3 -33 4 -62 15 -30 12 -63 25 -74 29
-11 4 -37 15 -58 24 -21 9 -44 16 -52 16 -8 0 -15 3 -15 8 0 4 -10 8 -22 8
-13 1 -52 9 -88 18 -62 16 -108 24 -365 64 -39 6 -49 11 -47 25 2 9 -2 17 -8
17 -5 0 -10 -7 -10 -15z"/>
<path d="M3627 1752 c-4 -5 -35 -14 -69 -21 -35 -7 -86 -16 -114 -22 -28 -5
-59 -7 -69 -3 -11 4 -16 3 -12 -2 3 -6 -15 -9 -43 -9 -26 0 -46 -3 -44 -6 2
-4 -9 -9 -24 -11 -50 -9 -237 -60 -247 -68 -5 -5 -35 -16 -65 -26 -30 -10 -49
-19 -44 -21 6 -2 49 10 97 27 132 46 484 122 617 132 36 3 42 8 31 27 -5 8
-11 9 -14 3z"/>
<path d="M2185 1720 c3 -5 14 -10 23 -10 15 0 15 2 2 10 -20 13 -33 13 -25 0z"/>
<path d="M2765 1709 c-11 -17 1 -21 15 -4 8 9 8 15 2 15 -6 0 -14 -5 -17 -11z"/>
<path d="M3625 1693 c-233 -28 -516 -89 -678 -144 -83 -29 -237 -105 -262
-130 -14 -14 20 -1 75 30 25 13 46 24 48 23 9 -7 22 0 16 9 -4 8 1 9 16 4 17
-5 21 -4 15 6 -6 8 -4 11 7 7 8 -4 28 0 44 7 41 18 169 52 261 70 109 21 374
54 456 57 38 1 71 6 73 10 3 4 1 8 -5 8 -5 0 -17 8 -27 17 -15 16 -15 17 2 24
20 8 10 9 -41 2z m15 -23 c21 -13 8 -21 -42 -25 -175 -13 -222 -15 -216 -10 4
4 21 8 40 10 18 2 62 8 97 14 35 6 67 8 72 6 4 -3 10 -1 14 5 8 12 16 12 35 0z
m-300 -50 c-14 -4 -38 -8 -55 -8 -29 1 -29 1 5 8 50 11 83 11 50 0z"/>
<path d="M1328 1666 c-10 -14 -18 -27 -18 -30 0 -3 28 -6 63 -6 108 0 347 -33
550 -76 37 -8 73 -11 80 -8 7 4 9 3 4 -1 -9 -10 53 -35 136 -55 31 -7 57 -16
57 -20 0 -9 89 -44 95 -38 3 2 -41 27 -98 55 -175 88 -530 178 -777 198 -72 6
-76 5 -92 -19z m172 -11 c25 -3 59 -9 77 -14 18 -5 41 -7 53 -4 12 3 20 0 20
-7 0 -8 -14 -10 -47 -6 -115 14 -162 19 -217 19 -52 0 -56 2 -40 14 13 10 33
12 64 8 25 -3 65 -8 90 -10z m200 -29 c0 -2 -7 -7 -16 -10 -8 -3 -12 -2 -9 4
6 10 25 14 25 6z m107 -32 c-3 -3 -12 -4 -19 -1 -8 3 -5 6 6 6 11 1 17 -2 13
-5z m40 -10 c-3 -3 -12 -4 -19 -1 -8 3 -5 6 6 6 11 1 17 -2 13 -5z"/>
<path d="M2666 1650 c-18 -18 -18 -19 3 -13 12 3 21 12 21 19 0 17 -1 17 -24
-6z"/>
<path d="M2395 1610 c3 -5 8 -10 11 -10 2 0 4 5 4 10 0 6 -5 10 -11 10 -5 0
-7 -4 -4 -10z"/>
<path d="M3741 1603 c0 -11 53 -52 75 -59 18 -5 18 -5 1 6 -9 6 -14 16 -11 22
5 7 2 8 -6 3 -10 -6 -12 -4 -7 8 4 11 2 14 -7 11 -8 -3 -17 -1 -21 5 -7 12
-25 15 -24 4z"/>
<path d="M1276 1592 c-3 -6 -1 -14 5 -18 8 -5 9 -3 4 6 -6 10 -1 12 23 7 18
-4 74 -9 125 -13 50 -3 99 -8 107 -11 8 -3 40 -6 70 -8 30 -2 84 -8 120 -13
36 -6 84 -13 106 -16 23 -2 61 -10 83 -16 23 -6 54 -13 69 -15 15 -2 47 -10
72 -19 25 -9 52 -16 60 -16 29 1 -12 17 -105 43 -131 36 -180 45 -364 67 -237
27 -367 35 -375 22z"/>
<path d="M3390 1575 c-198 -24 -304 -42 -420 -75 -78 -22 -120 -37 -120 -45 0
-4 4 -4 8 -1 28 17 279 73 342 77 8 0 22 3 30 6 8 4 35 8 60 9 25 2 70 6 100
10 30 4 66 8 80 9 227 18 249 20 258 30 12 11 -154 2 -338 -20z"/>
<path d="M2492 1475 c1 -63 5 -115 9 -115 4 0 8 52 8 115 1 71 -2 115 -8 115
-6 0 -10 -44 -9 -115z"/>
<path d="M2840 1548 c-55 -31 -60 -42 -7 -17 26 13 47 27 47 31 0 10 2 11 -40
-14z"/>
<path d="M2746 1495 c-11 -8 -16 -15 -10 -15 5 0 18 7 28 15 11 8 16 15 10 15
-5 0 -18 -7 -28 -15z"/>
<path d="M2335 1400 c3 -5 8 -10 11 -10 2 0 4 5 4 10 0 6 -5 10 -11 10 -5 0
-7 -4 -4 -10z"/>
<path d="M1677 1389 c7 -7 15 -10 18 -7 3 3 -2 9 -12 12 -14 6 -15 5 -6 -5z"/>
<path d="M3323 1389 c1 -6 -4 -14 -12 -17 -8 -2 -11 0 -8 5 3 5 -8 10 -24 11
-16 1 -29 -3 -29 -8 0 -6 8 -10 18 -8 9 1 22 -1 29 -5 12 -8 53 12 53 25 0 5
-7 8 -15 8 -8 0 -14 -5 -12 -11z"/>
<path d="M1720 1380 c0 -5 20 -10 45 -12 24 -1 41 0 37 4 -10 10 -82 17 -82 8z"/>
<path d="M3180 1370 c-23 -7 -23 -8 -3 -9 12 -1 25 4 28 9 3 6 5 10 3 9 -2 -1
-14 -5 -28 -9z"/>
<path d="M1820 1366 c0 -9 30 -14 35 -6 4 6 -3 10 -14 10 -12 0 -21 -2 -21 -4z"/>
<path d="M1870 1356 c7 -6 98 -11 105 -5 3 3 -21 7 -52 8 -32 1 -55 0 -53 -3z"/>
<path d="M3037 1350 c13 -5 41 -5 65 -1 42 9 41 9 -22 9 -48 1 -59 -2 -43 -8z"/>
<path d="M2020 1340 c19 -5 41 -4 50 0 10 6 -1 9 -35 9 -48 -1 -49 -1 -15 -9z"/>
<path d="M2940 1346 c0 -7 61 -13 65 -6 2 3 -12 7 -31 8 -19 2 -34 1 -34 -2z"/>
<path d="M2114 1330 c16 -5 61 -11 100 -14 l71 -5 -85 14 c-98 15 -128 17 -86
5z"/>
<path d="M2898 1333 c6 -2 18 -2 25 0 6 3 1 5 -13 5 -14 0 -19 -2 -12 -5z"/>
<path d="M2760 1320 c-41 -6 -42 -7 -10 -8 19 0 58 3 85 8 47 7 48 7 10 7 -22
0 -60 -3 -85 -7z"/>
<path d="M1795 1311 c-3 -5 -2 -12 3 -15 5 -3 9 1 9 9 0 17 -3 19 -12 6z"/>
<path d="M3203 1307 c0 -8 6 -14 14 -14 9 0 10 4 2 14 -6 7 -12 13 -14 13 -1
0 -2 -6 -2 -13z"/>
<path d="M2299 1299 c-11 -7 -11 -9 3 -9 9 0 21 -8 27 -17 5 -10 12 -16 14
-13 3 3 -3 15 -12 27 -12 15 -22 18 -32 12z"/>
<path d="M2675 1284 c-9 -14 -14 -28 -12 -31 3 -3 13 9 22 26 19 38 14 41 -10
5z"/>
<path d="M1820 1281 c0 -6 4 -12 8 -15 5 -3 9 1 9 9 0 8 -4 15 -9 15 -4 0 -8
-4 -8 -9z"/>
<path d="M2360 1240 c0 -5 5 -10 11 -10 5 0 7 5 4 10 -3 6 -8 10 -11 10 -2 0
-4 -4 -4 -10z"/>
<path d="M2626 1235 c4 -8 7 -15 9 -15 2 0 5 7 9 15 3 9 0 15 -9 15 -9 0 -12
-6 -9 -15z"/>
<path d="M2550 1207 c-31 -7 -38 -12 -24 -14 12 -2 37 3 55 11 40 17 31 18
-31 3z"/>
<path d="M2458 1193 c7 -3 16 -2 19 1 4 3 -2 6 -13 5 -11 0 -14 -3 -6 -6z"/>
<path d="M2198 1143 c7 -3 16 -2 19 1 4 3 -2 6 -13 5 -11 0 -14 -3 -6 -6z"/>
<path d="M2810 1140 c0 -5 5 -10 11 -10 5 0 7 5 4 10 -3 6 -8 10 -11 10 -2 0
-4 -4 -4 -10z"/>
<path d="M1340 3205 c-14 -8 -20 -14 -13 -15 7 0 21 -10 33 -22 24 -26 29 -23
23 20 -6 36 -8 37 -43 17z"/>
<path d="M1307 3148 c7 -42 4 -39 41 -32 l32 6 -28 22 c-15 11 -28 24 -30 28
-10 22 -21 4 -15 -24z"/>
<path d="M1502 2980 c0 -14 2 -19 5 -12 2 6 2 18 0 25 -3 6 -5 1 -5 -13z"/>
<path d="M1325 2810 c3 -5 8 -10 11 -10 2 0 4 5 4 10 0 6 -5 10 -11 10 -5 0
-7 -4 -4 -10z"/>
<path d="M1285 2940 c3 -5 8 -10 11 -10 2 0 4 5 4 10 0 6 -5 10 -11 10 -5 0
-7 -4 -4 -10z"/>
<path d="M3816 3513 c-11 -11 -6 -23 9 -23 8 0 15 4 15 9 0 13 -16 22 -24 14z"/>
<path d="M3690 3270 c-6 -11 -8 -20 -6 -20 3 0 10 9 16 20 6 11 8 20 6 20 -3
0 -10 -9 -16 -20z"/>
<path d="M3690 3226 c0 -2 8 -10 18 -17 15 -13 16 -12 3 4 -13 16 -21 21 -21
13z"/>
<path d="M1140 3200 c0 -5 5 -10 10 -10 6 0 10 5 10 10 0 6 -4 10 -10 10 -5 0
-10 -4 -10 -10z"/>
<path d="M3625 2909 c-4 -6 -5 -12 -2 -15 2 -3 7 2 10 11 7 17 1 20 -8 4z"/>
<path d="M1553 1355 c0 -8 4 -12 9 -9 5 3 6 10 3 15 -9 13 -12 11 -12 -6z"/>
</g>
</svg>
